<?xml version="1.0" standalone="no"?>
<!DOCTYPE svg PUBLIC "-//W3C//DTD SVG 20010904//EN"
 "http://www.w3.org/TR/2001/REC-SVG-20010904/DTD/svg10.dtd">
<svg version="1.0" xmlns="http://www.w3.org/2000/svg"
 width="2048.000000pt" height="2048.000000pt" viewBox="0 0 2048.000000 2048.000000"
 preserveAspectRatio="xMidYMid meet">

<g transform="translate(0.000000,2048.000000) scale(0.100000,-0.100000)"
fill="#000000" stroke="none">
<path d="M0 10240 l0 -10240 10240 0 10240 0 0 10240 0 10240 -3665 0 -3665 0
-2 -502 c-2 -277 -2 -665 0 -863 2 -273 0 -356 -8 -345 -10 13 -11 12 -6 -3 3
-10 7 -202 7 -425 1 -224 5 -393 9 -377 4 17 8 23 9 15 5 -50 20 -3016 21
-4025 0 -1200 3 -1370 23 -1358 6 4 8 -2 5 -15 -7 -27 -3 -27 22 -2 17 17 20
33 20 112 0 50 2 89 5 86 7 -7 7 -3430 0 -3436 -3 -3 -6 228 -6 514 -1 285 -5
958 -8 1494 l-7 975 -4 -1225 c-3 -674 -5 -1252 -6 -1285 -1 -33 -4 -352 -5
-710 -4 -633 -4 -639 -9 -245 l-5 405 -9 -345 c-5 -190 -10 -480 -12 -645 -4
-400 -11 -706 -17 -712 -3 -2 -8 199 -12 449 -16 1109 -20 1149 -24 213 l-4
-890 -8 490 c-10 678 -26 1357 -33 1420 -1 17 -4 95 -6 175 -3 113 -5 129 -9
75 l-5 -70 -6 95 c-5 80 -7 64 -10 -100 -2 -107 -5 -206 -6 -220 -2 -14 -7
-175 -10 -358 -4 -183 -10 -330 -13 -327 -3 3 -9 293 -13 643 -5 350 -10 669
-11 707 -2 39 -5 241 -7 450 l-3 380 -8 -498 c-4 -275 -10 -501 -13 -504 -2
-3 -4 480 -3 1074 2 923 0 1042 -9 825 -6 -139 -15 -256 -19 -260 -4 -4 -5 29
-1 73 3 44 8 206 9 360 3 219 3 235 -2 75 l-6 -205 -5 320 c-3 185 -6 -70 -7
-600 -1 -506 -4 -1077 -7 -1270 -2 -192 -8 -892 -11 -1555 -4 -663 -9 -1207
-11 -1209 -2 -2 -5 409 -5 915 -1 505 -3 1025 -4 1154 -2 233 -12 461 -21 469
-2 2 -4 -62 -4 -144 0 -82 -2 -146 -4 -144 -2 2 -6 89 -9 192 -2 103 -7 190
-9 193 -3 2 -9 -231 -13 -518 -4 -288 -10 -595 -14 -683 l-7 -160 -3 125 -4
125 -7 -160 c-5 -88 -11 -468 -14 -845 -7 -704 -7 -725 -19 -736 -4 -4 -8 58
-9 137 l-1 144 -8 -199 c-5 -110 -10 -207 -12 -215 -3 -9 -6 72 -8 179 -2 107
-5 162 -6 122 -7 -134 -22 -75 -26 96 -2 114 -4 63 -7 -158 -3 -238 -6 -294
-10 -210 l-6 115 -4 -120 c-2 -66 -5 -131 -6 -145 -1 -14 -3 -83 -4 -155 l-3
-130 -8 185 c-4 102 -9 235 -13 295 -3 61 -8 182 -11 270 -4 88 -8 161 -9 163
-3 2 -15 -418 -17 -582 -1 -79 -3 -92 -9 -61 -4 22 -11 207 -14 410 -9 552
-15 675 -32 675 -12 0 -14 -113 -16 -727 -2 -427 -5 -635 -8 -503 l-6 225 -4
-235 c-3 -129 -5 -381 -5 -560 -1 -192 -6 -337 -12 -355 -9 -29 -10 -28 -16
25 -4 30 -8 86 -8 123 -3 100 -19 92 -21 -10 -1 -86 -1 -87 -8 -28 -4 36 -8
-46 -10 -205 l-3 -265 -9 275 c-4 151 -12 309 -17 350 l-8 75 -4 -95 c-3 -82
-4 -72 -9 70 -5 138 -6 110 -9 -170 -1 -198 -6 -327 -11 -315 -6 14 -9 -7 -10
-65 -1 -47 -6 -96 -10 -110 -5 -14 -9 92 -11 245 -5 508 -17 973 -26 949 -2
-7 -8 -135 -12 -285 -6 -222 -8 -122 -9 520 -1 437 -4 792 -6 790 -2 -2 -6
-182 -9 -399 -3 -217 -10 -476 -15 -575 -16 -265 -22 -448 -22 -648 0 -98 -3
-176 -7 -174 -5 3 -7 -16 -6 -41 2 -38 0 -42 -6 -22 -7 18 -10 1 -12 -65 l-3
-90 -6 100 c-3 55 -7 81 -8 57 -1 -25 -6 -41 -12 -37 -6 4 -10 -42 -12 -121
-2 -91 -7 -129 -15 -132 -10 -3 -13 28 -13 130 0 73 -5 140 -10 148 -7 11 -10
7 -12 -20 -1 -19 -4 -3 -7 35 -4 47 -8 -12 -13 -181 -10 -312 -18 -439 -29
-422 -5 7 -10 -95 -11 -227 -2 -209 -3 -223 -8 -110 -8 171 -14 124 -18 -132
-2 -120 -4 -143 -17 -143 -12 0 -15 -18 -15 -104 0 -57 -4 -126 -10 -154 -5
-28 -10 -66 -10 -84 -3 -142 -14 -287 -21 -282 -5 3 -9 -56 -10 -133 -1 -85
-4 -128 -9 -113 -6 18 -9 7 -10 -45 -11 -314 -16 -257 -23 265 -5 316 -8 599
-8 628 0 28 -5 52 -10 52 -5 0 -10 19 -11 43 -1 37 -2 35 -8 -18 -4 -33 -7
-48 -8 -33 -1 14 -6 28 -12 30 -6 2 -12 159 -15 418 -7 572 -13 780 -24 815
-8 25 -10 19 -11 -40 -1 -38 -7 -99 -15 -135 l-13 -65 -3 45 c-1 25 -3 50 -4
55 -2 6 -4 26 -5 45 l-3 35 -7 -35 c-7 -32 -7 -30 -9 20 -5 197 -15 355 -22
358 -5 2 -10 108 -11 235 -1 187 -3 213 -8 137 -4 -52 -9 -180 -11 -285 l-3
-190 -6 195 -6 195 -4 -260 c-3 -231 -4 -247 -10 -140 -4 66 -9 266 -10 445
l-3 325 -9 -405 c-4 -223 -12 -576 -16 -785 l-9 -380 -3 390 c-3 283 -6 348
-10 235 l-5 -155 -8 276 c-8 258 -13 338 -23 348 -2 2 -5 -99 -5 -225 -1 -126
-5 -323 -9 -439 l-6 -210 -3 335 c-2 184 -6 373 -10 420 l-8 85 -2 -75 c-1
-41 -6 -93 -10 -115 -6 -29 -8 -14 -6 55 3 72 2 84 -5 50 -8 -44 -8 -44 -8 20
0 36 -2 72 -5 80 -3 8 -8 112 -12 230 -7 253 -6 240 -17 240 -4 0 -9 -19 -9
-42 -4 -122 -18 138 -25 492 l-9 395 -5 -285 c-3 -157 -7 -517 -8 -800 -1
-283 -6 -528 -11 -545 -6 -20 -10 50 -11 210 -1 132 -5 265 -9 295 -6 52 -7
49 -13 -50 -4 -58 -7 -125 -8 -150 -1 -25 -5 -83 -9 -130 -5 -53 -9 112 -10
440 -1 501 -9 960 -17 969 -2 2 -5 -107 -5 -242 -1 -136 -3 -251 -4 -257 -1
-5 -4 -79 -6 -162 -3 -142 -3 -135 -8 90 -5 201 -9 244 -21 252 -13 8 -16 -37
-20 -375 -3 -211 -8 -387 -12 -391 -5 -4 -9 114 -10 262 -1 241 -2 255 -9 134
-4 -74 -8 -252 -10 -395 -1 -143 -5 -276 -9 -295 l-7 -35 -3 30 c-1 17 -3 46
-5 65 -2 19 -3 175 -4 345 -1 204 -5 305 -11 295 -6 -9 -10 -162 -10 -380 0
-245 -4 -370 -11 -380 -9 -13 -10 -12 -5 2 3 10 1 20 -4 23 -6 4 -10 70 -10
151 0 83 -4 144 -9 144 -6 0 -12 -19 -14 -42 -2 -27 -5 -11 -7 42 -3 75 -4 80
-10 40 -4 -26 -8 52 -9 180 -1 234 -11 502 -17 509 -2 2 -4 -146 -4 -329 0
-183 -2 -331 -4 -329 -7 9 -16 347 -16 648 0 173 -2 312 -4 310 -5 -5 -16
-372 -26 -859 -4 -184 -8 -281 -10 -215 -2 91 -5 109 -10 75 -4 -29 -8 20 -10
135 -2 112 -6 165 -10 140 -4 -22 -8 64 -9 195 -1 156 -5 230 -11 220 -6 -9
-11 -199 -12 -475 -1 -253 -4 -411 -5 -351 -2 61 -8 115 -12 120 -5 6 -12 193
-16 416 -8 415 -20 608 -25 400 -2 -76 -5 -95 -10 -70 -6 26 -7 22 -4 -20 3
-39 1 -51 -6 -40 -6 10 -10 -53 -10 -196 0 -116 -3 -213 -6 -217 -3 -3 -8
-147 -10 -319 -7 -581 -15 -1023 -18 -1048 -3 -14 -6 -72 -7 -130 l-3 -105 -5
110 c-4 61 -7 289 -9 508 -2 219 -7 448 -12 510 -6 62 -11 164 -12 227 l-2
115 -6 -155 c-4 -85 -8 -355 -9 -600 -2 -337 -5 -439 -13 -420 -8 17 -14 254
-18 760 -3 404 -7 701 -9 660 -3 -78 -17 -206 -20 -181 0 8 -3 12 -6 9 -3 -3
-8 -270 -12 -594 -3 -324 -9 -686 -13 -804 -4 -139 -8 184 -11 915 l-3 1130
-6 -872 c-3 -479 -8 -874 -12 -878 -3 -3 -6 89 -7 206 0 116 -3 214 -6 217 -3
3 -5 -273 -5 -613 0 -340 -2 -616 -4 -614 -5 5 -14 286 -17 514 l-2 170 -7
-110 c-4 -60 -9 -290 -11 -510 -2 -256 -5 -357 -9 -280 l-6 120 -3 -170 c-2
-93 -5 -242 -7 -330 -2 -88 -5 -257 -7 -377 -3 -119 -7 -220 -10 -226 -4 -5
-7 -87 -8 -183 -1 -96 -5 -196 -9 -224 -4 -29 -9 98 -10 300 -2 193 -4 386 -6
430 -2 44 -4 487 -6 985 -1 498 -5 788 -8 645 -11 -543 -20 -126 -20 941 -1
606 -5 1082 -9 1074 -5 -8 -12 -197 -16 -420 -4 -223 -10 -466 -15 -540 l-7
-135 -2 195 c-2 116 -6 185 -11 170 -5 -17 -9 3 -10 65 -1 50 -6 119 -10 155
-7 62 -8 59 -8 -40 0 -58 -4 -305 -9 -550 l-8 -445 -8 545 c-6 497 -12 647
-23 659 -2 2 -5 -47 -6 -110 -2 -63 -5 39 -8 226 -5 332 -5 327 -9 -220 -2
-308 -7 -634 -11 -725 l-6 -165 -2 209 c-1 115 -4 207 -6 205 -2 -2 -7 -299
-11 -659 -4 -360 -11 -700 -15 -755 -5 -63 -7 31 -4 249 3 193 1 346 -3 342
-4 -4 -10 -114 -14 -244 -3 -143 -6 57 -7 506 -1 409 -5 741 -9 739 -5 -3 -9
59 -11 136 -2 78 -5 143 -6 145 -4 4 -15 -520 -22 -1088 -4 -272 -8 -497 -10
-499 -2 -2 -4 263 -5 590 0 327 -3 603 -5 614 -2 11 -8 259 -12 552 -4 293
-11 535 -15 539 -9 9 -11 -148 -9 -706 1 -239 -2 -473 -7 -520 -6 -62 -9 18
-10 299 0 211 -3 382 -5 380 -4 -4 -14 -1002 -18 -1754 l-3 -440 -5 390 -5
390 -3 -571 c-2 -567 -10 -809 -23 -714 -3 26 -7 -29 -9 -130 -2 -96 -6 -141
-7 -100 -3 51 -7 70 -13 60 -6 -9 -10 225 -10 630 0 420 -4 640 -10 630 -6 -9
-10 -150 -11 -340 -1 -179 -5 -359 -9 -400 -4 -44 -8 110 -10 368 -1 243 -4
447 -5 452 -1 6 -3 349 -4 763 -2 413 -6 743 -10 732 -4 -11 -9 -47 -10 -80
-2 -33 -4 -71 -6 -85 -1 -14 -4 -59 -5 -100 -2 -73 -3 -74 -10 -28 -5 26 -11
51 -14 56 -3 5 -7 218 -8 473 -1 255 -4 493 -7 529 -6 61 -7 63 -12 25 -3 -22
-7 -96 -8 -165 -3 -313 -16 -711 -22 -675 -3 22 -7 -70 -9 -205 -1 -135 -6
-348 -9 -475 l-7 -230 -2 254 c-1 140 -4 252 -6 250 -2 -2 -7 -285 -11 -629
-7 -605 -13 -786 -17 -489 -1 109 -3 127 -7 74 -6 -74 -21 389 -21 657 0 92
-4 148 -10 148 -6 0 -11 132 -12 373 -2 282 -4 211 -8 -298 l-5 -670 -4 440
c-3 242 -7 422 -10 400 -4 -33 -6 -26 -11 40 -4 44 -8 -107 -10 -335 l-4 -415
-6 325 c-4 179 -8 597 -9 929 -1 332 -3 607 -6 611 -2 4 -5 128 -6 276 -1 148
-5 312 -9 364 l-7 95 -1 -98 c-3 -143 -32 -838 -36 -867 -5 -27 1 270 10 525
4 88 3 157 -1 153 -4 -4 -10 -89 -12 -190 -3 -101 -8 -214 -12 -253 -5 -40 -7
50 -5 210 2 154 1 273 -2 265 -2 -8 -9 -87 -13 -175 l-9 -160 2 155 c2 86 -1
142 -5 127 -4 -16 -11 -189 -16 -385 l-8 -357 -6 205 c-8 270 -21 534 -25 539
-2 2 -4 -54 -5 -125 0 -78 -4 -121 -9 -109 -5 12 -7 -27 -6 -95 1 -63 -1 -171
-5 -240 -4 -69 -6 121 -5 422 l1 548 27 0 c21 0 27 -5 31 -28 4 -27 4 -27 6
-2 1 23 5 26 34 22 l32 -4 -3 423 c-2 321 0 424 10 430 7 5 11 32 11 72 0 70
5 77 65 77 21 0 22 4 24 78 l1 77 7 -60 7 -60 1 63 c1 36 -2 62 -8 62 -5 0
-10 8 -10 18 0 14 2 15 10 2 6 -10 10 42 10 157 0 119 4 174 12 179 7 5 8 3 3
-6 -5 -9 -4 -11 3 -6 16 10 15 26 -1 26 -7 0 -14 14 -15 31 -2 19 2 28 8 24 6
-3 17 1 26 9 8 9 20 16 25 16 5 0 9 -76 9 -180 0 -165 1 -180 18 -179 9 0 13
2 7 5 -12 5 -7 345 5 358 5 5 15 6 23 3 12 -5 15 -34 16 -163 1 -87 4 -161 8
-164 7 -6 -4 1144 -11 1178 -3 15 0 22 10 22 12 0 14 -84 14 -597 1 -481 3
-601 14 -615 15 -20 33 -23 38 -7 2 6 16 12 30 12 26 0 27 2 30 66 2 36 5 403
6 816 2 412 4 751 6 752 6 7 36 -9 36 -19 0 -6 -7 -8 -15 -4 -13 5 -15 -18
-15 -169 0 -163 1 -175 18 -175 10 0 19 -7 19 -16 0 -10 -7 -14 -20 -10 -19 5
-19 -10 -16 -1427 2 -788 0 -1447 -5 -1466 -6 -25 -5 -32 3 -26 7 4 20 -2 29
-13 17 -19 82 -36 82 -20 0 4 3 7 8 7 35 -6 85 4 101 20 11 11 22 16 26 13 4
-4 5 -2 4 3 -2 6 2 20 9 32 10 17 11 105 8 370 -3 192 -7 834 -11 1428 -3 594
-9 1127 -13 1185 l-7 105 -6 -65 c-5 -55 -6 -45 -8 60 -2 69 -3 131 -2 138 1
6 -6 12 -16 12 -17 1 -17 1 0 11 14 9 17 26 17 118 0 87 3 110 15 114 8 4 17
2 20 -3 4 -6 16 -10 27 -10 20 0 21 -3 15 -110 -5 -93 -3 -110 9 -110 13 0 14
-29 11 -200 -2 -110 0 -200 4 -200 5 0 10 -39 11 -87 2 -49 1 59 -1 238 -4
346 -5 341 42 344 17 2 18 -13 17 -238 -1 -131 1 -242 4 -245 3 -3 6 102 7
234 0 131 4 259 8 284 5 28 9 -62 10 -239 1 -265 2 -283 19 -276 9 4 24 8 32
9 8 2 17 17 21 34 6 30 4 36 -13 34 -3 -1 -9 5 -12 13 -4 11 3 15 28 15 19 0
37 6 39 13 3 6 6 2 6 -10 1 -25 -15 -39 -22 -21 -4 10 -6 10 -6 1 -1 -14 35
-36 47 -29 4 2 8 -7 8 -21 2 -29 11 -40 24 -27 18 18 24 70 21 182 l-3 112 46
0 46 0 1 145 c1 80 3 154 4 165 1 11 3 27 4 35 0 8 7 14 14 12 6 -1 11 4 10
11 -2 6 2 12 7 12 6 0 10 -17 10 -37 -1 -35 -2 -36 -15 -19 -13 17 -14 16 -10
-10 2 -16 4 -39 4 -52 1 -14 5 -21 12 -16 7 4 10 -4 9 -22 -1 -16 -2 -46 -1
-67 1 -33 4 -38 21 -35 20 3 21 -1 23 -537 1 -354 3 -429 4 -217 2 203 7 322
13 322 6 0 10 83 10 223 l0 224 25 11 c17 8 25 20 25 37 0 21 5 25 30 25 17 0
30 -5 30 -11 0 -5 -4 -7 -10 -4 -5 3 -10 1 -10 -4 0 -6 -5 -11 -11 -11 -5 0
-7 5 -4 10 3 6 1 10 -4 10 -6 0 -11 -7 -11 -15 0 -18 31 -20 49 -2 11 10 14 9
18 -1 4 -10 8 -10 19 -2 11 10 12 5 10 -24 -3 -30 -1 -36 15 -36 13 0 19 7 20
23 1 21 1 21 9 -3 8 -22 9 -20 9 15 -1 59 0 65 11 65 6 0 10 -43 10 -110 l0
-110 29 0 c16 0 32 -6 34 -12 3 -7 6 -1 6 15 1 15 10 35 21 44 19 17 20 28 18
273 -2 199 -3 226 -8 125 l-5 -130 -5 195 -6 195 -2 -221 c-2 -174 -5 -228
-17 -250 -16 -31 -15 -40 -19 154 -1 15 -5 30 -10 34 -15 10 -21 545 -7 562 9
11 9 15 -1 19 -11 4 -10 6 0 6 7 1 11 5 8 10 -3 5 1 11 9 15 8 3 15 1 15 -5 0
-6 6 -6 18 -1 9 5 23 7 30 5 7 -3 20 1 29 9 9 7 14 8 11 3 -4 -6 -3 -17 3 -25
6 -11 9 -6 9 17 0 21 -5 32 -12 30 -7 -1 -13 5 -13 13 0 8 5 14 11 13 6 -1 10
11 8 30 -1 18 -3 125 -4 240 -1 114 -6 210 -11 213 -5 3 -9 11 -9 17 0 7 4 6
10 -3 12 -18 12 -9 1 46 -6 29 -4 41 4 41 9 0 13 -49 14 -186 1 -102 6 -238
11 -301 5 -63 10 -146 11 -185 0 -38 3 -64 6 -57 4 10 8 9 18 -5 12 -16 14
-14 20 20 4 21 5 64 1 95 -11 107 -21 367 -18 497 1 72 4 477 6 900 1 424 4
780 4 793 1 14 11 26 26 31 18 7 24 19 30 57 3 26 6 1297 6 2825 l0 2779 -80
0 -80 0 0 -2490 c0 -2411 -1 -2490 -18 -2490 -18 0 -19 16 -25 227 -4 124 -7
1245 -7 2490 l0 2263 -30 0 -30 0 0 -2302 c-1 -1267 0 -2387 0 -2490 0 -124
-3 -188 -10 -188 -7 0 -10 775 -10 2490 l0 2490 -5515 0 -5515 0 0 -10240z
m13969 3995 c-5 -500 -11 -919 -13 -930 -3 -11 -6 -432 -7 -935 l-3 -915 -6
820 c-4 451 -8 1017 -10 1258 -1 241 -6 435 -10 430 -13 -13 -19 -655 -21
-2178 -2 -786 -5 -1401 -9 -1365 -6 64 -6 64 -10 20 -20 -192 -19 2770 0 3175
6 132 13 470 15 750 2 281 4 522 5 537 0 20 6 27 23 30 21 3 22 8 25 97 1 52
8 101 14 108 6 8 12 12 14 11 1 -2 -2 -412 -7 -913z m-2802 718 c-3 -10 -5 -2
-5 17 0 19 2 27 5 18 2 -10 2 -26 0 -35z m30 -523 l-1 -185 -6 200 -6 200 -4
-180 c-3 -135 -5 -156 -8 -85 -2 52 0 169 4 260 l8 165 7 -95 c4 -52 6 -178 6
-280z m20 348 c-3 -8 -6 -5 -6 6 -1 11 2 17 5 13 3 -3 4 -12 1 -19z m-50 -95
c-2 -21 -4 -4 -4 37 0 41 2 58 4 38 2 -21 2 -55 0 -75z m30 -876 c-1 -67 -3
-9 -3 128 0 138 2 192 3 122 2 -71 2 -183 0 -250z m2239 -154 c-3 -153 -10
-321 -14 -373 l-8 -95 -3 100 c-1 55 -8 127 -16 160 l-13 60 -3 -75 -2 -75 -7
95 c-4 52 -8 182 -9 288 l-1 192 41 0 41 0 -6 -277z m50 -728 l0 -1000 -6 815
c-9 1054 -9 1032 -17 1027 -5 -3 -10 33 -11 80 -3 78 -2 85 15 81 17 -3 18
-42 19 -1003z m74 785 l-6 -205 -2 215 c-1 117 1 210 6 205 4 -6 5 -102 2
-215z m-2383 73 c-2 -21 -4 -4 -4 37 0 41 2 58 4 38 2 -21 2 -55 0 -75z m3447
-636 c-4 -392 -8 -714 -10 -716 -2 -2 -4 321 -4 718 0 476 3 720 10 716 6 -4
8 -250 4 -718z m-3447 351 c-2 -13 -4 -5 -4 17 -1 22 1 32 4 23 2 -10 2 -28 0
-40z m2280 15 c-3 -10 -5 -4 -5 12 0 17 2 24 5 18 2 -7 2 -21 0 -30z m1360
-25 c-3 -8 -6 -5 -6 6 -1 11 2 17 5 13 3 -3 4 -12 1 -19z m-895 -543 c2 -203
1 -341 -3 -305 -7 64 -11 704 -4 685 2 -5 5 -176 7 -380z m350 -2 c11 -14 2
-1415 -12 -1788 -7 -169 -8 -143 -6 170 2 244 1 307 -3 185 -4 -109 -8 121 -9
556 -2 687 8 1346 16 1015 1 -71 7 -130 14 -138z m-1075 30 c-2 -21 -4 -6 -4
32 0 39 2 55 4 38 2 -18 2 -50 0 -70z m-2020 -105 c-2 -13 -4 -3 -4 22 0 25 2
35 4 23 2 -13 2 -33 0 -45z m0 -150 c-2 -24 -4 -5 -4 42 0 47 2 66 4 43 2 -24
2 -62 0 -85z m2750 -260 c-2 -24 -4 -7 -4 37 0 44 2 63 4 43 2 -21 2 -57 0
-80z m690 -160 c-2 -13 -4 -5 -4 17 -1 22 1 32 4 23 2 -10 2 -28 0 -40z
m-4398 -395 c-5 -38 -6 -30 -6 42 0 66 1 79 6 48 4 -23 4 -63 0 -90z m733 -71
c1 -23 -2 -45 -5 -49 -4 -3 -7 18 -7 47 0 62 9 63 12 2z m81 41 c-7 -2 -21 -2
-30 0 -10 3 -4 5 12 5 17 0 24 -2 18 -5z m2714 -30 c-3 -10 -5 -4 -5 12 0 17
2 24 5 18 2 -7 2 -21 0 -30z m0 -351 c-1 -53 -3 -7 -3 103 0 110 2 154 3 97 2
-57 2 -147 0 -200z m-3422 248 c3 -5 -1 -10 -10 -10 -9 0 -13 5 -10 10 3 6 8
10 10 10 2 0 7 -4 10 -10z m674 -2 c0 -7 -4 -22 -9 -33 -7 -16 -9 -14 -7 13 1
17 5 32 9 32 4 0 8 -6 7 -12z m-1322 -165 c-3 -10 -5 -2 -5 17 0 19 2 27 5 18
2 -10 2 -26 0 -35z m920 15 c-3 -8 -6 -5 -6 6 -1 11 2 17 5 13 3 -3 4 -12 1
-19z m2890 -10 c-3 -8 -6 -5 -6 6 -1 11 2 17 5 13 3 -3 4 -12 1 -19z m-2386
-15 c-12 -20 -14 -14 -5 12 4 9 9 14 11 11 3 -2 0 -13 -6 -23z m2516 -230 c-2
-32 -3 -8 -3 52 0 61 1 87 3 58 2 -29 2 -78 0 -110z m-50 117 c7 -19 8 -28 1
-24 -7 5 -9 -71 -7 -235 2 -132 7 -241 10 -241 3 0 4 -12 1 -26 -3 -19 -7 -22
-14 -12 -8 12 -2 -79 7 -109 3 -7 0 -13 -5 -13 -5 0 -11 19 -14 43 -7 51 -14
605 -8 630 5 25 16 21 29 -13z m-3411 -448 l2 -467 -8 380 c-4 209 -8 412 -10
450 -3 89 -2 105 8 105 4 0 8 -210 8 -468z m3534 336 c0 -67 -2 -119 -4 -117
-2 2 -7 57 -11 122 -5 83 -4 117 4 117 7 0 11 -40 11 -122z m-180 97 c-9 -11
-10 -55 -6 -167 3 -98 2 -139 -4 -113 -6 30 -14 237 -11 288 1 4 8 7 17 7 13
0 14 -3 4 -15z m-48 -512 l-9 -228 0 370 c0 323 1 352 9 228 6 -87 6 -229 0
-370z m485 485 c-3 -8 -6 -5 -6 6 -1 11 2 17 5 13 3 -3 4 -12 1 -19z m-370
-30 c-3 -7 -5 -2 -5 12 0 14 2 19 5 13 2 -7 2 -19 0 -25z m170 -751 c-1 -139
-2 -22 -2 258 0 281 1 394 2 252 2 -142 2 -372 0 -510z m-170 701 c-3 -7 -5
-2 -5 12 0 14 2 19 5 13 2 -7 2 -19 0 -25z m-3892 2 c3 -5 1 -10 -4 -10 -6 0
-11 5 -11 10 0 6 2 10 4 10 3 0 8 -4 11 -10z m915 -4 c0 -4 -11 -5 -24 -2 -18
4 -28 1 -35 -11 -11 -20 -14 -13 -5 11 6 16 64 18 64 2z m3347 -163 c-2 -32
-3 -8 -3 52 0 61 1 87 3 58 2 -29 2 -78 0 -110z m-3740 85 c-2 -13 -4 -3 -4
22 0 25 2 35 4 23 2 -13 2 -33 0 -45z m2740 15 c-3 -10 -5 -2 -5 17 0 19 2 27
5 18 2 -10 2 -26 0 -35z m-2817 5 c0 -12 -1 -19 -3 -17 -1 2 -9 12 -16 22 -12
14 -11 17 3 17 10 0 16 -8 16 -22z m-15 -175 c-3 -70 -7 -129 -10 -131 -3 -3
-5 56 -5 132 0 86 4 135 10 131 6 -3 8 -56 5 -132z m-316 65 c-1 -55 -5 -50
-11 15 -2 20 0 37 4 37 4 0 7 -24 7 -52z m228 -25 c-3 -10 -5 -4 -5 12 0 17 2
24 5 18 2 -7 2 -21 0 -30z m-301 -35 c-4 -24 -10 -126 -12 -228 -3 -101 -7
-186 -10 -189 -2 -2 -5 90 -6 205 -1 135 -4 186 -8 144 l-7 -65 -1 82 c-2 84
-1 86 42 92 5 0 5 -18 2 -41z m71 -40 c-3 -8 -6 -5 -6 6 -1 11 2 17 5 13 3 -3
4 -12 1 -19z m230 -85 c-3 -10 -5 -2 -5 17 0 19 2 27 5 18 2 -10 2 -26 0 -35z
m-340 -65 c-2 -13 -4 -5 -4 17 -1 22 1 32 4 23 2 -10 2 -28 0 -40z m3250 -30
c-2 -13 -4 -3 -4 22 0 25 2 35 4 23 2 -13 2 -33 0 -45z m-2910 -65 c-3 -10 -5
-4 -5 12 0 17 2 24 5 18 2 -7 2 -21 0 -30z m0 -85 c-3 -7 -5 -2 -5 12 0 14 2
19 5 13 2 -7 2 -19 0 -25z m3530 -5 c-3 -10 -5 -4 -5 12 0 17 2 24 5 18 2 -7
2 -21 0 -30z m-4317 7 c0 -5 -4 -10 -10 -10 -6 0 -11 -64 -13 -157 l-3 -158
-2 168 c-2 143 0 167 13 167 8 0 15 -4 15 -10z m4217 -82 c-3 -7 -5 -2 -5 12
0 14 2 19 5 13 2 -7 2 -19 0 -25z m-3750 0 c-3 -8 -6 -5 -6 6 -1 11 2 17 5 13
3 -3 4 -12 1 -19z m-2463 6 c26 -10 18 -24 -14 -24 -30 0 -41 14 -17 23 6 3
13 6 14 6 1 1 8 -2 17 -5z m2797 -86 c1 -2 3 -180 5 -395 2 -253 0 -393 -6
-393 -6 0 -10 -5 -10 -11 0 -5 4 -8 8 -5 13 8 13 -55 0 -72 -10 -12 -10 -14
-1 -8 9 5 12 0 11 -18 -1 -15 -6 -26 -11 -26 -4 0 -3 -9 3 -19 7 -14 6 -21 -3
-24 -9 -4 -8 -8 2 -16 12 -8 13 -14 2 -37 -10 -22 -10 -29 1 -35 9 -6 9 -9 1
-9 -7 0 -14 -19 -16 -42 -2 -24 -4 217 -3 535 1 480 4 603 17 575z m116 -60
c-3 -8 -6 -5 -6 6 -1 11 2 17 5 13 3 -3 4 -12 1 -19z m0 -50 c-3 -7 -5 -2 -5
12 0 14 2 19 5 13 2 -7 2 -19 0 -25z m-935 -103 c-6 -34 -12 -32 -12 6 0 16 4
28 9 25 4 -3 6 -17 3 -31z m4675 -37 c-3 -8 -6 -5 -6 6 -1 11 2 17 5 13 3 -3
4 -12 1 -19z m-20 -35 c-3 -10 -5 -4 -5 12 0 17 2 24 5 18 2 -7 2 -21 0 -30z
m-4660 -105 c-3 -8 -6 -5 -6 6 -1 11 2 17 5 13 3 -3 4 -12 1 -19z m470 -190
c-2 -35 -3 -9 -3 57 0 66 1 94 3 63 2 -32 2 -86 0 -120z m3260 -140 c-3 -7 -5
-2 -5 12 0 14 2 19 5 13 2 -7 2 -19 0 -25z m20 -190 c-3 -8 -6 -5 -6 6 -1 11
2 17 5 13 3 -3 4 -12 1 -19z m0 -65 c-3 -10 -5 -2 -5 17 0 19 2 27 5 18 2 -10
2 -26 0 -35z m-20 -145 c-3 -8 -6 -5 -6 6 -1 11 2 17 5 13 3 -3 4 -12 1 -19z
m30 -80 c-2 -13 -4 -5 -4 17 -1 22 1 32 4 23 2 -10 2 -28 0 -40z m-2943 -131
c2 -53 0 -97 -5 -97 -5 0 -9 46 -9 102 0 56 2 99 5 97 2 -3 6 -49 9 -102z
m-1347 61 c-3 -7 -5 -2 -5 12 0 14 2 19 5 13 2 -7 2 -19 0 -25z m465 -150 c-4
-342 -8 -374 -10 -95 -1 152 1 277 6 277 4 0 6 -82 4 -182z m-357 132 c-3 -5
-19 -10 -36 -10 -16 0 -29 5 -29 10 0 6 16 10 36 10 21 0 33 -4 29 -10z m13
-356 c-5 -277 -8 -336 -21 -348 -8 -8 -17 -12 -21 -9 -3 4 -7 -169 -8 -383 -1
-214 -3 -346 -5 -294 -1 52 -7 323 -14 603 -7 279 -16 507 -20 507 -4 0 -6
-440 -3 -977 2 -538 1 -1052 -4 -1143 -8 -140 -9 -86 -13 365 -7 1063 -4 2015
6 2012 6 -2 10 -9 10 -14 0 -6 3 -15 8 -19 4 -4 7 2 7 14 0 16 7 21 33 24 17
2 36 2 41 -1 5 -2 7 -144 4 -337z m-172 314 c4 -6 3 -8 -3 -5 -10 6 -22 -813
-25 -1713 0 -239 -4 -466 -7 -505 l-6 -70 -8 90 c-4 50 -7 246 -7 438 -1 191
-5 347 -9 347 -4 0 -9 109 -10 242 -1 133 -4 244 -6 247 -5 4 -10 -383 -10
-707 0 -67 -3 -122 -7 -122 -4 0 -9 118 -11 263 -3 204 -3 188 -3 -73 1 -184
-2 -310 -5 -280 -4 30 -9 235 -10 455 -4 372 -4 355 -9 -250 l-5 -650 -3 685
c-1 377 -5 836 -8 1020 -4 195 -3 332 2 327 12 -12 11 9 14 -319 l2 -293 14
90 c9 58 13 132 10 208 -3 77 -1 115 5 111 7 -4 9 26 7 85 -2 50 0 92 4 94 4
1 8 64 9 140 l1 139 -52 3 c-88 6 -69 15 33 15 62 0 98 -4 103 -12z m39 -75
c-1 -49 -4 -401 -5 -783 -1 -382 -6 -681 -9 -665 -4 17 -9 369 -10 783 -2 651
0 752 13 752 11 0 14 -16 11 -87z m1360 -74 c10 -73 13 -544 3 -504 -5 22 -7
55 -4 73 3 19 0 32 -6 32 -7 0 -7 4 1 13 6 8 8 17 4 21 -4 4 -8 97 -9 207 -1
193 2 229 11 158z m-1818 -61 c-3 -7 -5 -2 -5 12 0 14 2 19 5 13 2 -7 2 -19 0
-25z m-346 -368 c0 -182 -2 -334 -5 -338 -3 -3 -7 26 -8 64 l-1 69 -7 -55 c-6
-51 -7 -47 -10 40 -6 210 -5 260 6 264 8 3 10 32 6 94 -4 85 4 209 14 199 3
-3 5 -154 5 -337z m579 309 c0 -11 -3 -18 -7 -16 -5 3 -8 -27 -9 -66 -3 -176
-6 -214 -14 -178 -5 19 -6 40 -3 48 3 7 0 13 -6 13 -6 0 -11 -10 -11 -22 0
-13 -5 -30 -10 -38 -7 -10 -9 26 -9 110 0 116 2 122 14 90 7 -19 14 -27 14
-17 1 9 7 17 14 18 6 0 3 4 -8 9 -11 5 -14 9 -7 9 17 1 16 51 -2 51 -8 0 -16
-5 -18 -12 -3 -7 -7 -6 -11 5 -5 14 0 17 33 17 34 0 40 -3 40 -21z m17 -1 c-3
-8 -6 -5 -6 6 -1 11 2 17 5 13 3 -3 4 -12 1 -19z m-458 -47 c0 -43 -4 -61 -15
-65 -10 -4 -14 3 -15 27 -1 18 -1 35 0 40 0 4 -4 7 -10 7 -5 0 -7 5 -4 10 6 9
-7 14 -30 11 -5 -1 -3 4 6 12 9 7 28 13 42 15 25 2 25 0 26 -57z m98 10 c-1
-27 -5 -37 -14 -34 -18 7 -17 73 1 73 11 0 15 -11 13 -39z m76 -63 c7 -164 -1
-1017 -10 -1083 -6 -46 -9 -4 -13 175 l-6 235 -4 -280 -4 -280 -6 250 c-8 296
-8 986 0 807 3 -67 9 -122 14 -122 10 0 10 179 0 212 -3 9 0 19 6 23 6 3 8 11
4 16 -3 6 -7 41 -9 80 -3 53 0 69 10 69 10 0 15 -25 18 -102z m287 45 c0 -24
-3 -33 -9 -25 -7 12 -4 62 5 62 2 0 4 -17 4 -37z m-3 -65 c-3 -8 -6 -5 -6 6
-1 11 2 17 5 13 3 -3 4 -12 1 -19z m-461 -100 c-3 -51 -5 -237 -5 -412 -1
-176 -3 -317 -5 -315 -17 17 -27 679 -11 679 6 0 5 4 -2 8 -7 4 -9 13 -4 20
12 21 1 61 -15 55 -10 -4 -14 3 -14 24 0 25 4 29 31 31 l30 2 -5 -92z m1051
-105 c-2 -32 -3 -6 -3 57 0 63 1 89 3 58 2 -32 2 -84 0 -115z m52 -10 c-1 -98
-4 -207 -8 -243 -4 -38 -7 34 -7 178 -1 133 3 242 7 242 5 0 8 -80 8 -177z
m28 35 c-2 -13 -4 -5 -4 17 -1 22 1 32 4 23 2 -10 2 -28 0 -40z m-1184 -330
c-5 -405 -19 -632 -22 -358 -1 85 -4 282 -8 438 -6 280 -6 282 14 282 21 0 21
-2 16 -362z m1435 295 c-1 -54 -2 -55 -5 -13 -3 24 -9 50 -15 57 -8 10 -6 13
6 13 13 0 16 -10 14 -57z m-2226 -755 c-1 -409 -4 -750 -6 -758 -2 -8 -4 323
-5 736 -1 635 1 764 14 764 0 0 -1 -334 -3 -742z m-235 685 c-3 -10 -5 -2 -5
17 0 19 2 27 5 18 2 -10 2 -26 0 -35z m-20 -40 c-2 -16 -4 -5 -4 22 0 28 2 40
4 28 2 -13 2 -35 0 -50z m5890 20 c-3 -10 -5 -4 -5 12 0 17 2 24 5 18 2 -7 2
-21 0 -30z m-3990 -5 c-3 -8 -6 -5 -6 6 -1 11 2 17 5 13 3 -3 4 -12 1 -19z
m260 -25 c-3 -10 -5 -4 -5 12 0 17 2 24 5 18 2 -7 2 -21 0 -30z m978 -32 c0
-33 -3 -54 -7 -48 -10 16 -10 107 0 107 4 0 7 -27 7 -59z m-2238 -18 c-3 -10
-5 -2 -5 17 0 19 2 27 5 18 2 -10 2 -26 0 -35z m4990 25 c-3 -8 -6 -5 -6 6 -1
11 2 17 5 13 3 -3 4 -12 1 -19z m-3990 -20 c-3 -8 -6 -5 -6 6 -1 11 2 17 5 13
3 -3 4 -12 1 -19z m-1000 -80 c-2 -13 -4 -5 -4 17 -1 22 1 32 4 23 2 -10 2
-28 0 -40z m-70 -65 c-2 -21 -4 -4 -4 37 0 41 2 58 4 38 2 -21 2 -55 0 -75z
m1070 85 c-3 -8 -6 -5 -6 6 -1 11 2 17 5 13 3 -3 4 -12 1 -19z m-1900 -35 c-3
-10 -5 -4 -5 12 0 17 2 24 5 18 2 -7 2 -21 0 -30z m2484 -20 c-8 -15 -10 -15
-11 -2 0 17 10 32 18 25 2 -3 -1 -13 -7 -23z m-951 -80 c0 -54 -3 -73 -10 -63
-15 23 -10 140 6 140 2 0 4 -35 4 -77z m-335 17 c3 -5 1 -10 -4 -10 -6 0 -11
5 -11 10 0 6 2 10 4 10 3 0 8 -4 11 -10z m-1017 -257 c-2 -151 -4 -194 -5
-111 -3 116 -6 136 -18 132 -8 -4 -15 -1 -15 5 0 6 7 11 15 11 12 0 15 18 15
105 0 58 2 105 5 105 3 0 4 -111 3 -247z m1353 143 c5 3 8 -16 8 -43 -2 -47
-2 -47 -9 -13 l-7 35 -3 -45 -3 -45 -7 45 c-8 43 -2 100 7 72 3 -6 9 -10 14
-6z m-1534 -58 c-3 -8 -6 -5 -6 6 -1 11 2 17 5 13 3 -3 4 -12 1 -19z m1527
-119 c10 -96 8 -167 -5 -149 -7 11 -9 2 -8 -35 3 -99 -1 -378 -6 -374 -2 3 -5
113 -6 245 -1 330 0 374 10 374 4 0 11 -28 15 -61z m-1422 29 c-3 -12 -7 -17
-10 -10 -2 7 -7 10 -11 8 -4 -3 -13 0 -21 6 -12 8 -12 9 2 4 10 -3 20 -1 23 4
11 19 23 10 17 -12z m1162 -333 c3 -8 1 -15 -4 -15 -6 0 -10 7 -10 15 0 8 2
15 4 15 2 0 6 -7 10 -15z m-237 -152 c-2 -16 -4 -3 -4 27 0 30 2 43 4 28 2
-16 2 -40 0 -55z m1640 -30 c-3 -10 -5 -4 -5 12 0 17 2 24 5 18 2 -7 2 -21 0
-30z m-1030 -95 c-3 -7 -5 -2 -5 12 0 14 2 19 5 13 2 -7 2 -19 0 -25z m-130
-30 c-3 -8 -6 -5 -6 6 -1 11 2 17 5 13 3 -3 4 -12 1 -19z m120 -115 c-3 -10
-5 -2 -5 17 0 19 2 27 5 18 2 -10 2 -26 0 -35z m-20 -50 c-3 -10 -5 -4 -5 12
0 17 2 24 5 18 2 -7 2 -21 0 -30z m2730 -30 c-3 -10 -5 -2 -5 17 0 19 2 27 5
18 2 -10 2 -26 0 -35z m-2710 -60 c-2 -16 -4 -3 -4 27 0 30 2 43 4 28 2 -16 2
-40 0 -55z m4233 -68 c0 -8 -2 -15 -4 -15 -2 0 -6 7 -10 15 -3 8 -1 15 4 15 6
0 10 -7 10 -15z m-4223 -57 c-2 -13 -4 -5 -4 17 -1 22 1 32 4 23 2 -10 2 -28
0 -40z m2130 -560 c-2 -29 -3 -6 -3 52 0 58 1 81 3 53 2 -29 2 -77 0 -105z
m-590 -50 c-3 -7 -5 -2 -5 12 0 14 2 19 5 13 2 -7 2 -19 0 -25z m1000 -70 c-3
-7 -5 -2 -5 12 0 14 2 19 5 13 2 -7 2 -19 0 -25z m-100 -85 c-3 -10 -5 -4 -5
12 0 17 2 24 5 18 2 -7 2 -21 0 -30z m1180 -535 c-3 -8 -6 -5 -6 6 -1 11 2 17
5 13 3 -3 4 -12 1 -19z m180 -365 c-3 -10 -5 -4 -5 12 0 17 2 24 5 18 2 -7 2
-21 0 -30z m0 -65 c-3 -7 -5 -2 -5 12 0 14 2 19 5 13 2 -7 2 -19 0 -25z
m-1890 -95 c-2 -16 -4 -3 -4 27 0 30 2 43 4 28 2 -16 2 -40 0 -55z m0 -90 c-3
-10 -5 -4 -5 12 0 17 2 24 5 18 2 -7 2 -21 0 -30z"/>
<path d="M13466 13905 c4 -8 8 -15 10 -15 2 0 4 7 4 15 0 8 -4 15 -10 15 -5 0
-7 -7 -4 -15z"/>
<path d="M13473 13835 c0 -27 2 -38 4 -22 2 15 2 37 0 50 -2 12 -4 0 -4 -28z"/>
<path d="M8501 8294 c0 -11 3 -14 6 -6 3 7 2 16 -1 19 -3 4 -6 -2 -5 -13z"/>
<path d="M8412 8840 c0 -19 2 -27 5 -17 2 9 2 25 0 35 -3 9 -5 1 -5 -18z"/>
<path d="M8161 8504 c0 -11 3 -14 6 -6 3 7 2 16 -1 19 -3 4 -6 -2 -5 -13z"/>
<path d="M8421 7934 c0 -11 3 -14 6 -6 3 7 2 16 -1 19 -3 4 -6 -2 -5 -13z"/>
<path d="M11337 20473 c-3 -5 -5 -1262 -5 -2795 0 -2448 2 -2787 15 -2792 13
-5 14 -84 11 -611 -2 -332 -3 -603 -2 -602 8 8 16 249 23 679 4 274 11 501 15
505 8 8 -1 -950 -9 -1129 l-5 -88 31 0 30 0 -2 2838 c-1 1560 2 2880 5 2932 3
52 2 316 -2 585 l-9 490 -3 -725 c-4 -769 -8 -2459 -9 -3964 -1 -500 -4 -907
-7 -904 -3 4 -7 1189 -9 2635 -2 1587 0 2618 6 2603 7 -20 8 -17 4 15 -3 22
-8 106 -12 188 l-6 147 -28 0 c-15 0 -30 -3 -32 -7z m40 -4795 c-3 -7 -5 -2
-5 12 0 14 2 19 5 13 2 -7 2 -19 0 -25z m0 -130 c-2 -18 -4 -4 -4 32 0 36 2
50 4 33 2 -18 2 -48 0 -65z m0 -195 c-3 -10 -5 -2 -5 17 0 19 2 27 5 18 2 -10
2 -26 0 -35z"/>
<path d="M11414 20375 c0 -60 1 -84 3 -52 2 32 2 81 0 110 -2 29 -3 3 -3 -58z"/>
<path d="M11478 17583 c1 -1594 3 -3132 5 -3418 1 -286 3 1018 5 2898 1 1879
-1 3417 -5 3417 -5 0 -7 -1304 -5 -2897z"/>
<path d="M11525 18213 c5 -1248 9 -2784 9 -3415 1 -1171 1 -1185 36 -1130 8
12 13 13 16 5 3 -7 18 -13 34 -13 16 0 31 6 33 13 4 10 6 10 6 0 1 -18 28 -16
35 3 11 29 6 33 -46 37 -32 2 -13 4 45 5 l97 2 0 3380 0 3380 -136 0 -137 0 8
-2267z m42 -1535 c-2 -13 -4 -5 -4 17 -1 22 1 32 4 23 2 -10 2 -28 0 -40z m0
-215 c-2 -16 -4 -3 -4 27 0 30 2 43 4 28 2 -16 2 -40 0 -55z m20 -75 c-2 -18
-4 -4 -4 32 0 36 2 50 4 33 2 -18 2 -48 0 -65z m-20 -255 c-1 -49 -3 -9 -3 87
0 96 2 136 3 88 2 -49 2 -127 0 -175z m20 30 c-2 -16 -4 -3 -4 27 0 30 2 43 4
28 2 -16 2 -40 0 -55z m0 -65 c-3 -8 -6 -5 -6 6 -1 11 2 17 5 13 3 -3 4 -12 1
-19z m0 -50 c-3 -8 -6 -5 -6 6 -1 11 2 17 5 13 3 -3 4 -12 1 -19z m0 -90 c-2
-13 -4 -3 -4 22 0 25 2 35 4 23 2 -13 2 -33 0 -45z m-19 -890 l-1 -943 -9 520
c-5 286 -6 646 -4 800 3 154 6 344 6 423 0 78 2 142 5 142 3 0 4 -424 3 -942z
m14 -1211 c3 -13 1 -32 -3 -43 -5 -13 -8 -7 -8 24 -1 46 4 55 11 19z m2 -93
c-3 -35 -14 -44 -14 -12 0 21 7 38 15 38 1 0 1 -12 -1 -26z m-7 -66 c-3 -8 -6
-5 -6 6 -1 11 2 17 5 13 3 -3 4 -12 1 -19z"/>
<path d="M11829 20118 c-1 -200 0 -367 1 -373 1 -5 3 -973 3 -2150 1 -1225 4
-1862 7 -1490 l6 650 -3 -750 c-2 -412 -5 -804 -6 -870 l-4 -120 6 110 c4 62
8 95 11 75 3 -19 2 -84 -1 -145 -3 -60 -3 -113 1 -118 3 -4 3 -37 -1 -75 -5
-37 -7 -130 -7 -207 1 -112 3 -125 7 -65 3 41 7 -77 8 -264 1 -186 4 -340 6
-342 2 -2 3 1459 3 3246 -1 3088 -2 3250 -18 3250 -17 0 -18 -24 -19 -362z
m18 -1820 c-3 -8 -6 -5 -6 6 -1 11 2 17 5 13 3 -3 4 -12 1 -19z m0 -40 c-3 -8
-6 -5 -6 6 -1 11 2 17 5 13 3 -3 4 -12 1 -19z m0 -95 c-2 -16 -4 -3 -4 27 0
30 2 43 4 28 2 -16 2 -40 0 -55z m10 -3425 c-3 -7 -5 -2 -5 12 0 14 2 19 5 13
2 -7 2 -19 0 -25z"/>
<path d="M11894 20270 c0 -118 2 -167 3 -107 2 59 2 155 0 215 -1 59 -3 10 -3
-108z"/>
<path d="M11914 17878 c5 -1879 4 -2631 -4 -2702 -9 -74 -9 -101 0 -106 9 -5
11 -193 8 -739 l-3 -731 33 0 32 0 1 183 c0 100 3 213 5 251 4 47 2 66 -5 61
-6 -3 -11 1 -11 10 0 9 3 14 8 11 7 -4 11 5901 4 6222 l-3 142 -36 0 -35 0 6
-2602z m23 -2690 c-2 -18 -4 -6 -4 27 0 33 2 48 4 33 2 -15 2 -42 0 -60z m0
-1055 c-1 -186 -2 -34 -2 337 0 371 1 523 2 338 2 -186 2 -490 0 -675z m0
-365 c-3 -8 -6 -5 -6 6 -1 11 2 17 5 13 3 -3 4 -12 1 -19z m10 -130 c-2 -18
-4 -6 -4 27 0 33 2 48 4 33 2 -15 2 -42 0 -60z"/>
<path d="M12140 17632 c0 -2620 5 -3390 21 -3212 4 46 6 26 6 -70 1 -74 -3
-175 -7 -225 -8 -84 -8 -80 -6 53 1 78 -2 142 -7 142 -5 0 -7 -117 -5 -259 2
-142 6 -254 10 -247 11 16 10 -40 -1 -105 -11 -59 -20 -806 -11 -854 3 -17 11
-30 20 -30 20 0 20 -78 26 4128 l5 3527 -26 0 -25 0 0 -2848z m37 -964 c-3 -7
-5 -2 -5 12 0 14 2 19 5 13 2 -7 2 -19 0 -25z m0 -240 c-2 -18 -4 -6 -4 27 0
33 2 48 4 33 2 -15 2 -42 0 -60z m0 -250 c-2 -13 -4 -3 -4 22 0 25 2 35 4 23
2 -13 2 -33 0 -45z m0 -436 c-1 -53 -3 -7 -3 103 0 110 2 154 3 97 2 -57 2
-147 0 -200z m0 -134 c-3 -8 -6 -5 -6 6 -1 11 2 17 5 13 3 -3 4 -12 1 -19z m0
-675 c-3 -10 -5 -4 -5 12 0 17 2 24 5 18 2 -7 2 -21 0 -30z m0 -45 c-3 -8 -6
-5 -6 6 -1 11 2 17 5 13 3 -3 4 -12 1 -19z m0 -160 c-2 -24 -4 -7 -4 37 0 44
2 63 4 43 2 -21 2 -57 0 -80z m0 -930 c-1 -68 -3 -15 -3 117 0 132 2 187 3
123 2 -64 2 -172 0 -240z m-7 -154 c0 -14 -4 -23 -9 -20 -5 3 -7 15 -4 26 7
28 13 25 13 -6z m-3 -66 c-3 -8 -6 -5 -6 6 -1 11 2 17 5 13 3 -3 4 -12 1 -19z"/>
<path d="M12262 19113 c2 -783 5 -1178 8 -923 3 245 6 -184 7 -954 1 -769 4
-1401 7 -1404 3 -3 7 350 8 784 3 1022 2 990 8 1124 3 63 7 -105 10 -375 4
-410 6 -325 9 530 2 561 7 1216 10 1455 l7 435 3 -620 c2 -341 4 -755 5 -920
1 -165 5 -1195 9 -2290 11 -3053 13 -3319 28 -3346 10 -18 13 -84 13 -259 0
-129 1 -194 3 -144 3 78 6 93 22 97 10 2 18 -1 18 -9 0 -7 -4 -11 -8 -9 -4 3
-7 -27 -8 -65 -1 -56 2 -70 14 -70 13 0 15 31 13 229 -2 157 0 233 8 241 8 8
11 -90 12 -360 1 -204 5 -377 9 -383 4 -7 8 -37 8 -67 0 -30 5 -57 10 -60 7
-3 11 89 13 265 1 148 6 272 11 275 4 3 11 12 14 20 4 12 6 11 6 -3 1 -10 6
-15 12 -12 7 5 8 44 3 120 -11 185 9 271 47 198 13 -27 14 -24 17 54 2 60 7
83 17 87 13 5 15 -46 13 -387 -1 -216 -5 -351 -8 -302 l-6 90 -2 -71 c-1 -39
-5 -99 -8 -133 l-7 -61 32 0 c26 0 31 4 31 23 -1 12 2 292 5 622 6 648 12
6710 8 7477 l-3 466 -154 1 c-117 1 -155 -1 -159 -11 -4 -10 -6 -10 -6 0 -1 6
-7 12 -15 12 -8 0 -17 -6 -19 -12 -4 -10 -6 -10 -6 0 -1 7 -15 12 -36 12 l-35
0 2 -1367z m75 1155 c-2 -18 -4 -4 -4 32 0 36 2 50 4 33 2 -18 2 -48 0 -65z
m0 -120 c-3 -8 -6 -5 -6 6 -1 11 2 17 5 13 3 -3 4 -12 1 -19z m0 -125 c-2 -16
-4 -5 -4 22 0 28 2 40 4 28 2 -13 2 -35 0 -50z m0 -110 c-3 -10 -5 -4 -5 12 0
17 2 24 5 18 2 -7 2 -21 0 -30z m-60 -470 c-2 -38 -3 -7 -3 67 0 74 1 105 3
68 2 -38 2 -98 0 -135z m0 -200 c-2 -16 -4 -3 -4 27 0 30 2 43 4 28 2 -16 2
-40 0 -55z m30 -1110 c-2 -21 -4 -4 -4 37 0 41 2 58 4 38 2 -21 2 -55 0 -75z
m60 -156 c-2 -23 -3 -1 -3 48 0 50 1 68 3 42 2 -26 2 -67 0 -90z m-60 -94 c-3
-10 -5 -4 -5 12 0 17 2 24 5 18 2 -7 2 -21 0 -30z m60 15 c-3 -8 -6 -5 -6 6
-1 11 2 17 5 13 3 -3 4 -12 1 -19z m0 -70 c-2 -13 -4 -5 -4 17 -1 22 1 32 4
23 2 -10 2 -28 0 -40z m10 -3120 c-2 -13 -4 -5 -4 17 -1 22 1 32 4 23 2 -10 2
-28 0 -40z m0 -265 c-1 -43 -3 -8 -3 77 0 85 2 120 3 78 2 -43 2 -113 0 -155z
m0 -260 c-2 -32 -3 -6 -3 57 0 63 1 89 3 58 2 -32 2 -84 0 -115z m0 -335 c-1
-51 -3 -10 -3 92 0 102 2 143 3 93 2 -51 2 -135 0 -185z m0 -465 c-2 -16 -4
-3 -4 27 0 30 2 43 4 28 2 -16 2 -40 0 -55z m300 -605 c-3 -7 -5 -2 -5 12 0
14 2 19 5 13 2 -7 2 -19 0 -25z m-178 -185 c1 24 6 37 15 37 19 0 26 -22 26
-80 l0 -48 -30 11 c-29 11 -30 14 -29 67 2 54 2 54 9 15 l7 -40 2 38z m3 -188
c3 -55 2 -86 -2 -70 -8 31 -13 182 -6 174 2 -2 5 -49 8 -104z m35 -27 c-3 -8
-6 -5 -6 6 -1 11 2 17 5 13 3 -3 4 -12 1 -19z"/>
<path d="M12771 19903 c0 -318 3 -596 7 -618 5 -26 13 -41 25 -43 16 -3 17 34
17 617 l0 621 -25 0 -25 0 1 -577z"/>
<path d="M12899 20298 c-1 -101 -1 -1393 0 -2873 1 -2362 5 -3005 17 -2993 2
2 6 98 10 213 7 217 14 282 14 134 1 -62 3 -79 11 -66 6 10 12 156 16 365 6
427 20 509 24 142 2 -207 4 -244 9 -170 4 52 7 232 7 400 -1 190 -3 265 -7
200 l-6 -105 -2 108 c-2 80 1 107 11 107 9 0 9 2 0 8 -10 6 -13 80 -12 313 1
182 5 294 10 279 7 -20 8 -18 4 10 -3 19 -5 204 -5 410 5 1756 6 3650 2 3673
-4 25 -8 27 -53 27 l-49 0 -1 -182z m38 -5420 c-3 -8 -6 -5 -6 6 -1 11 2 17 5
13 3 -3 4 -12 1 -19z"/>
<path d="M13135 20050 c0 -239 1 -337 2 -217 2 119 2 315 0 435 -1 119 -2 21
-2 -218z"/>
<path d="M11892 20015 c0 -16 2 -22 5 -12 2 9 2 23 0 30 -3 6 -5 -1 -5 -18z"/>
<path d="M11414 19715 c0 -77 2 -107 3 -67 2 40 2 103 0 140 -2 37 -3 4 -3
-73z"/>
<path d="M11893 19655 c0 -38 2 -53 4 -32 2 20 2 52 0 70 -2 17 -4 1 -4 -38z"/>
<path d="M11412 19505 c0 -16 2 -22 5 -12 2 9 2 23 0 30 -3 6 -5 -1 -5 -18z"/>
<path d="M11413 19390 c0 -41 2 -58 4 -37 2 20 2 54 0 75 -2 20 -4 3 -4 -38z"/>
<path d="M12042 19345 c0 -16 2 -22 5 -12 2 9 2 23 0 30 -3 6 -5 -1 -5 -18z"/>
<path d="M12042 19285 c0 -16 2 -22 5 -12 2 9 2 23 0 30 -3 6 -5 -1 -5 -18z"/>
<path d="M11823 19195 c0 -22 2 -30 4 -17 2 12 2 30 0 40 -3 9 -5 -1 -4 -23z"/>
<path d="M11824 19040 c0 -52 1 -74 3 -47 2 26 2 68 0 95 -2 26 -3 4 -3 -48z"/>
<path d="M13134 18955 c0 -71 1 -99 3 -62 2 37 2 96 0 130 -2 34 -3 4 -3 -68z"/>
<path d="M11892 18450 c0 -19 2 -27 5 -17 2 9 2 25 0 35 -3 9 -5 1 -5 -18z"/>
<path d="M11892 18340 c0 -19 2 -27 5 -17 2 9 2 25 0 35 -3 9 -5 1 -5 -18z"/>
<path d="M12045 17755 c0 -198 1 -280 2 -183 2 97 2 259 0 360 -1 101 -2 21
-2 -177z"/>
<path d="M12124 17880 c0 -102 2 -143 3 -92 2 50 2 134 0 185 -1 50 -3 9 -3
-93z"/>
<path d="M12122 17540 c0 -14 2 -19 5 -12 2 6 2 18 0 25 -3 6 -5 1 -5 -13z"/>
<path d="M11894 17390 c0 -80 2 -112 3 -72 2 39 2 105 0 145 -1 39 -3 7 -3
-73z"/>
<path d="M11891 16954 c0 -11 3 -14 6 -6 3 7 2 16 -1 19 -3 4 -6 -2 -5 -13z"/>
<path d="M11894 16770 c0 -91 2 -128 3 -82 2 45 2 119 0 165 -1 45 -3 8 -3
-83z"/>
<path d="M12313 16800 c0 -25 2 -35 4 -22 2 12 2 32 0 45 -2 12 -4 2 -4 -23z"/>
<path d="M12314 16665 c0 -49 1 -71 3 -48 2 23 2 64 0 90 -2 26 -3 8 -3 -42z"/>
<path d="M11893 16565 c0 -22 2 -30 4 -17 2 12 2 30 0 40 -3 9 -5 -1 -4 -23z"/>
<path d="M11891 16464 c0 -11 3 -14 6 -6 3 7 2 16 -1 19 -3 4 -6 -2 -5 -13z"/>
<path d="M11893 16360 c0 -47 2 -66 4 -42 2 23 2 61 0 85 -2 23 -4 4 -4 -43z"/>
<path d="M13002 16195 c0 -16 2 -22 5 -12 2 9 2 23 0 30 -3 6 -5 -1 -5 -18z"/>
<path d="M13002 16125 c0 -16 2 -22 5 -12 2 9 2 23 0 30 -3 6 -5 -1 -5 -18z"/>
<path d="M13001 15964 c0 -11 3 -14 6 -6 3 7 2 16 -1 19 -3 4 -6 -2 -5 -13z"/>
<path d="M13002 15890 c0 -14 2 -19 5 -12 2 6 2 18 0 25 -3 6 -5 1 -5 -13z"/>
<path d="M11894 15775 c0 -66 1 -92 3 -57 2 34 2 88 0 120 -2 31 -3 3 -3 -63z"/>
<path d="M13002 15810 c0 -14 2 -19 5 -12 2 6 2 18 0 25 -3 6 -5 1 -5 -13z"/>
<path d="M12042 15745 c0 -16 2 -22 5 -12 2 9 2 23 0 30 -3 6 -5 -1 -5 -18z"/>
<path d="M12122 15690 c0 -19 2 -27 5 -17 2 9 2 25 0 35 -3 9 -5 1 -5 -18z"/>
<path d="M11893 15600 c0 -25 2 -35 4 -22 2 12 2 32 0 45 -2 12 -4 2 -4 -23z"/>
<path d="M11892 15440 c0 -14 2 -19 5 -12 2 6 2 18 0 25 -3 6 -5 1 -5 -13z"/>
<path d="M12125 14235 c0 -242 1 -340 2 -217 2 123 2 321 0 440 -1 119 -2 19
-2 -223z"/>
<path d="M11294 14375 c0 -82 2 -115 3 -72 2 43 2 110 0 150 -1 40 -3 5 -3
-78z"/>
<path d="M11821 14324 c0 -11 3 -14 6 -6 3 7 2 16 -1 19 -3 4 -6 -2 -5 -13z"/>
<path d="M12042 14225 c0 -16 2 -22 5 -12 2 9 2 23 0 30 -3 6 -5 -1 -5 -18z"/>
<path d="M12911 14190 c-10 -137 -12 -268 -3 -274 7 -4 9 5 5 29 -3 19 -2 35
3 35 5 0 9 16 10 35 0 18 -3 32 -8 29 -4 -3 -8 0 -8 5 0 6 5 11 10 11 6 0 10
5 10 11 0 5 -4 7 -10 4 -12 -7 -13 7 -2 21 4 5 5 34 1 64 -3 30 -7 44 -8 30z"/>
<path d="M12041 14174 c0 -11 3 -14 6 -6 3 7 2 16 -1 19 -3 4 -6 -2 -5 -13z"/>
<path d="M11823 14125 c0 -33 2 -45 4 -27 2 18 2 45 0 60 -2 15 -4 0 -4 -33z"/>
<path d="M12041 14014 c0 -11 3 -14 6 -6 3 7 2 16 -1 19 -3 4 -6 -2 -5 -13z"/>
<path d="M11833 13975 c0 -22 2 -30 4 -17 2 12 2 30 0 40 -3 9 -5 -1 -4 -23z"/>
<path d="M12910 13797 l5 -102 3 94 c1 52 -1 98 -5 102 -4 5 -6 -38 -3 -94z"/>
<path d="M11902 13850 c0 -14 2 -19 5 -12 2 6 2 18 0 25 -3 6 -5 1 -5 -13z"/>
<path d="M12141 13764 c0 -11 3 -14 6 -6 3 7 2 16 -1 19 -3 4 -6 -2 -5 -13z"/>
<path d="M11850 13755 c0 -8 5 -15 10 -15 6 0 10 7 10 15 0 8 -4 15 -10 15 -5
0 -10 -7 -10 -15z"/>
<path d="M11901 13734 c0 -11 3 -14 6 -6 3 7 2 16 -1 19 -3 4 -6 -2 -5 -13z"/>
<path d="M11340 13650 c0 -6 7 -10 15 -10 8 0 15 2 15 4 0 2 -7 6 -15 10 -8 3
-15 1 -15 -4z"/>
<path d="M11610 13609 c0 -17 4 -28 10 -24 11 7 9 55 -2 55 -4 0 -8 -14 -8
-31z"/>
<path d="M11553 13589 c-2 -26 0 -29 12 -19 18 15 20 50 3 50 -7 0 -14 -14
-15 -31z"/>
<path d="M11284 13460 c0 -74 1 -105 3 -67 2 37 2 97 0 135 -2 37 -3 6 -3 -68z"/>
<path d="M11951 13561 c-10 -7 -12 -19 -6 -47 4 -22 10 -33 12 -26 3 6 8 10
12 8 3 -2 5 13 3 35 -2 21 -5 39 -6 39 0 0 -7 -4 -15 -9z"/>
<path d="M11614 13536 c-9 -20 -9 -23 2 -19 8 3 14 14 14 24 0 25 -3 24 -16
-5z"/>
<path d="M11910 13530 c0 -16 5 -30 10 -30 6 0 10 14 10 30 0 17 -4 30 -10 30
-5 0 -10 -13 -10 -30z"/>
<path d="M11552 13510 c0 -22 -4 -44 -7 -50 -3 -5 -1 -10 5 -10 6 0 8 -6 4
-12 -5 -9 -4 -10 4 -3 15 14 20 107 6 112 -7 2 -12 -11 -12 -37z"/>
<path d="M11608 13493 c7 -3 16 -2 19 1 4 3 -2 6 -13 5 -11 0 -14 -3 -6 -6z"/>
<path d="M11600 13465 c0 -8 2 -15 4 -15 2 0 6 7 10 15 3 8 1 15 -4 15 -6 0
-10 -7 -10 -15z"/>
<path d="M12903 12849 c3 -283 9 -527 15 -544 6 -19 8 160 7 509 -1 431 -4
541 -14 544 -11 4 -12 -92 -8 -509z"/>
<path d="M11283 13280 c0 -25 2 -35 4 -22 2 12 2 32 0 45 -2 12 -4 2 -4 -23z"/>
<path d="M11817 13233 c-10 -9 -9 -433 1 -433 4 0 7 99 7 220 0 121 0 220 -1
220 0 0 -4 -3 -7 -7z"/>
<path d="M11781 13184 c0 -11 3 -14 6 -6 3 7 2 16 -1 19 -3 4 -6 -2 -5 -13z"/>
<path d="M11837 13035 c5 -183 11 -204 11 -40 0 72 -3 141 -7 155 -4 14 -6
-38 -4 -115z"/>
<path d="M11782 13130 c0 -19 2 -27 5 -17 2 9 2 25 0 35 -3 9 -5 1 -5 -18z"/>
<path d="M11485 12886 c-7 -229 -3 -302 16 -290 5 3 9 0 9 -7 0 -7 3 -9 6 -6
4 4 9 126 11 272 4 256 3 265 -15 265 -18 0 -20 -13 -27 -234z"/>
<path d="M11781 12954 c0 -11 3 -14 6 -6 3 7 2 16 -1 19 -3 4 -6 -2 -5 -13z"/>
<path d="M11781 12804 c0 -11 3 -14 6 -6 3 7 2 16 -1 19 -3 4 -6 -2 -5 -13z"/>
<path d="M12150 12755 c0 -8 7 -15 15 -15 9 0 12 6 9 15 -4 8 -10 15 -15 15
-5 0 -9 -7 -9 -15z"/>
<path d="M12972 12735 c0 -16 2 -22 5 -12 2 9 2 23 0 30 -3 6 -5 -1 -5 -18z"/>
<path d="M11284 12605 c0 -60 1 -84 3 -52 2 32 2 81 0 110 -2 29 -3 3 -3 -58z"/>
<path d="M12141 12684 c0 -11 3 -14 6 -6 3 7 2 16 -1 19 -3 4 -6 -2 -5 -13z"/>
<path d="M12285 12690 c-7 -12 3 -50 14 -50 4 0 6 14 3 30 -5 32 -7 36 -17 20z"/>
<path d="M12943 12545 c0 -22 2 -30 4 -17 2 12 2 30 0 40 -3 9 -5 -1 -4 -23z"/>
<path d="M12609 12560 c-3 -8 -6 -118 -6 -245 -1 -217 -1 -223 8 -110 10 125
8 381 -2 355z"/>
<path d="M11122 12530 c0 -19 2 -27 5 -17 2 9 2 25 0 35 -3 9 -5 1 -5 -18z"/>
<path d="M11156 12545 c4 -8 8 -15 10 -15 2 0 4 7 4 15 0 8 -4 15 -10 15 -5 0
-7 -7 -4 -15z"/>
<path d="M13232 12485 c0 -16 2 -22 5 -12 2 9 2 23 0 30 -3 6 -5 -1 -5 -18z"/>
<path d="M12941 12484 c0 -11 3 -14 6 -6 3 7 2 16 -1 19 -3 4 -6 -2 -5 -13z"/>
<path d="M11153 12400 c0 -41 2 -58 4 -37 2 20 2 54 0 75 -2 20 -4 3 -4 -38z"/>
<path d="M11101 12444 c0 -11 3 -14 6 -6 3 7 2 16 -1 19 -3 4 -6 -2 -5 -13z"/>
<path d="M12941 12444 c0 -11 3 -14 6 -6 3 7 2 16 -1 19 -3 4 -6 -2 -5 -13z"/>
<path d="M11103 12370 c0 -30 2 -43 4 -27 2 15 2 39 0 55 -2 15 -4 2 -4 -28z"/>
<path d="M12941 12404 c0 -11 3 -14 6 -6 3 7 2 16 -1 19 -3 4 -6 -2 -5 -13z"/>
<path d="M11492 12370 c0 -19 2 -27 5 -17 2 9 2 25 0 35 -3 9 -5 1 -5 -18z"/>
<path d="M12941 12364 c0 -11 3 -14 6 -6 3 7 2 16 -1 19 -3 4 -6 -2 -5 -13z"/>
<path d="M12941 12324 c0 -11 3 -14 6 -6 3 7 2 16 -1 19 -3 4 -6 -2 -5 -13z"/>
<path d="M12943 12260 c0 -25 2 -35 4 -22 2 12 2 32 0 45 -2 12 -4 2 -4 -23z"/>
<path d="M12529 12068 c-1 -117 -3 -234 -3 -260 -1 -46 8 -68 21 -55 3 4 5 26
4 49 -2 24 -2 50 -1 58 12 113 5 420 -11 420 -4 0 -9 -96 -10 -212z"/>
<path d="M11152 12240 c0 -14 2 -19 5 -12 2 6 2 18 0 25 -3 6 -5 1 -5 -13z"/>
<path d="M11103 12200 c0 -30 2 -43 4 -27 2 15 2 39 0 55 -2 15 -4 2 -4 -28z"/>
<path d="M12894 12155 c0 -55 1 -76 3 -47 2 29 2 74 0 100 -2 26 -3 2 -3 -53z"/>
<path d="M11073 12150 c0 -36 2 -50 4 -32 2 17 2 47 0 65 -2 17 -4 3 -4 -33z"/>
<path d="M12962 12180 c0 -14 2 -19 5 -12 2 6 2 18 0 25 -3 6 -5 1 -5 -13z"/>
<path d="M11104 12050 c0 -52 1 -74 3 -47 2 26 2 68 0 95 -2 26 -3 4 -3 -48z"/>
<path d="M11162 12100 c0 -14 2 -19 5 -12 2 6 2 18 0 25 -3 6 -5 1 -5 -13z"/>
<path d="M11081 11984 c0 -11 3 -14 6 -6 3 7 2 16 -1 19 -3 4 -6 -2 -5 -13z"/>
<path d="M12962 11920 c0 -19 2 -27 5 -17 2 9 2 25 0 35 -3 9 -5 1 -5 -18z"/>
<path d="M11103 11850 c0 -30 2 -43 4 -27 2 15 2 39 0 55 -2 15 -4 2 -4 -28z"/>
<path d="M12884 11555 c0 -181 2 -257 3 -168 2 89 2 237 0 330 -1 92 -3 20 -3
-162z"/>
<path d="M12961 11864 c0 -11 3 -14 6 -6 3 7 2 16 -1 19 -3 4 -6 -2 -5 -13z"/>
<path d="M10237 11833 c-11 -10 -8 -203 2 -203 6 0 9 45 8 105 -1 58 -2 105
-3 105 0 0 -4 -3 -7 -7z"/>
<path d="M12650 11794 c0 -27 4 -43 10 -39 6 3 10 24 10 46 0 21 -4 39 -10 39
-5 0 -10 -21 -10 -46z"/>
<path d="M11173 11750 c0 -30 2 -43 4 -27 2 15 2 39 0 55 -2 15 -4 2 -4 -28z"/>
<path d="M10361 11635 l-4 -70 -7 50 c-4 29 -7 -40 -8 -168 -1 -189 1 -215 14
-203 12 12 14 54 11 238 -1 123 -4 192 -6 153z"/>
<path d="M11005 11633 c-4 -10 -9 -360 -10 -778 -2 -418 -1 -750 2 -737 2 12
9 20 14 16 5 -3 10 7 10 23 2 212 -2 1488 -5 1490 -2 2 -7 -4 -11 -14z"/>
<path d="M11172 11610 c0 -14 2 -19 5 -12 2 6 2 18 0 25 -3 6 -5 1 -5 -13z"/>
<path d="M10754 11460 c0 -52 1 -74 3 -47 2 26 2 68 0 95 -2 26 -3 4 -3 -48z"/>
<path d="M10222 11490 c0 -14 2 -19 5 -12 2 6 2 18 0 25 -3 6 -5 1 -5 -13z"/>
<path d="M10733 11175 c0 -27 2 -38 4 -22 2 15 2 37 0 50 -2 12 -4 0 -4 -28z"/>
<path d="M10409 10988 c-1 -285 1 -358 11 -438 4 -41 8 71 9 298 1 235 -2 362
-9 362 -6 0 -10 -81 -11 -222z"/>
<path d="M10613 11145 c0 -33 2 -45 4 -27 2 18 2 45 0 60 -2 15 -4 0 -4 -33z"/>
<path d="M10812 11180 c0 -14 2 -19 5 -12 2 6 2 18 0 25 -3 6 -5 1 -5 -13z"/>
<path d="M10380 10902 c0 -120 -2 -221 -5 -223 -10 -11 -15 -309 -5 -309 6 0
10 -35 10 -87 0 -47 2 -84 4 -82 5 5 6 82 7 567 0 193 -2 352 -5 352 -3 0 -6
-98 -6 -218z"/>
<path d="M10733 10592 c-1 -287 3 -515 8 -518 11 -6 10 897 0 976 -5 30 -8
-176 -8 -458z"/>
<path d="M12974 10910 c0 -102 2 -143 3 -92 2 50 2 134 0 185 -1 50 -3 9 -3
-93z"/>
<path d="M10638 11028 c3 -14 2 -19 -6 -14 -9 5 -12 -27 -12 -123 0 -110 2
-131 15 -131 13 0 15 22 15 139 0 77 -4 142 -9 145 -5 4 -7 -4 -3 -16z"/>
<path d="M10363 10800 c0 -30 2 -43 4 -27 2 15 2 39 0 55 -2 15 -4 2 -4 -28z"/>
<path d="M10361 10714 c0 -11 3 -14 6 -6 3 7 2 16 -1 19 -3 4 -6 -2 -5 -13z"/>
<path d="M9803 10309 c4 -13 7 -84 7 -158 0 -74 2 -132 4 -130 3 2 6 71 7 154
1 115 -1 150 -11 153 -9 3 -11 -2 -7 -19z"/>
<path d="M10382 10032 c-1 -86 -3 -500 -4 -919 -2 -605 0 -763 10 -763 9 0 12
83 13 378 3 689 -2 1436 -9 1449 -4 7 -8 -58 -10 -145z"/>
<path d="M11001 10034 c0 -11 3 -14 6 -6 3 7 2 16 -1 19 -3 4 -6 -2 -5 -13z"/>
<path d="M12841 9994 c0 -11 3 -14 6 -6 3 7 2 16 -1 19 -3 4 -6 -2 -5 -13z"/>
<path d="M9960 9971 c9 -7 10 -11 3 -11 -6 0 -11 -8 -10 -18 0 -10 6 -19 12
-19 16 0 11 50 -6 55 -11 3 -11 1 1 -7z"/>
<path d="M11000 9875 c0 -54 2 -96 6 -93 3 3 5 45 5 93 0 48 -2 90 -5 93 -4 3
-6 -39 -6 -93z"/>
<path d="M9959 9910 c-2 -14 -4 -60 -2 -60 10 0 20 39 12 51 -5 7 -9 12 -10 9z"/>
<path d="M12861 9884 c0 -11 3 -14 6 -6 3 7 2 16 -1 19 -3 4 -6 -2 -5 -13z"/>
<path d="M9957 9683 c-3 -5 -1 -17 3 -27 6 -17 7 -18 13 -3 3 9 2 17 -4 17 -6
0 -7 5 -4 10 3 6 4 10 1 10 -3 0 -7 -3 -9 -7z"/>
<path d="M10834 9540 c0 -63 1 -89 3 -57 2 31 2 83 0 115 -2 31 -3 5 -3 -58z"/>
<path d="M9960 9620 c0 -5 5 -10 11 -10 5 0 7 5 4 10 -3 6 -8 10 -11 10 -2 0
-4 -4 -4 -10z"/>
<path d="M13072 9590 c0 -14 2 -19 5 -12 2 6 2 18 0 25 -3 6 -5 1 -5 -13z"/>
<path d="M9964 9465 c0 -77 2 -107 3 -67 2 40 2 103 0 140 -2 37 -3 4 -3 -73z"/>
<path d="M12812 9350 c0 -14 2 -19 5 -12 2 6 2 18 0 25 -3 6 -5 1 -5 -13z"/>
<path d="M9606 9293 c-6 -14 -5 -15 5 -6 7 7 10 15 7 18 -3 3 -9 -2 -12 -12z"/>
<path d="M10831 9284 c0 -11 3 -14 6 -6 3 7 2 16 -1 19 -3 4 -6 -2 -5 -13z"/>
<path d="M10832 9235 c0 -16 2 -22 5 -12 2 9 2 23 0 30 -3 6 -5 -1 -5 -18z"/>
<path d="M10834 9100 c0 -58 1 -81 3 -52 2 28 2 76 0 105 -2 28 -3 5 -3 -53z"/>
<path d="M9607 9053 c-10 -9 -9 -313 1 -313 4 0 7 72 7 160 0 88 0 160 -1 160
0 0 -4 -3 -7 -7z"/>
<path d="M10803 8920 c0 -25 2 -35 4 -22 2 12 2 32 0 45 -2 12 -4 2 -4 -23z"/>
<path d="M9893 8810 c0 -47 2 -66 4 -42 2 23 2 61 0 85 -2 23 -4 4 -4 -43z"/>
<path d="M9664 8605 c0 -71 1 -99 3 -62 2 37 2 96 0 130 -2 34 -3 4 -3 -68z"/>
<path d="M9878 8529 c-2 -105 0 -196 3 -201 4 -6 12 -2 18 11 7 11 18 21 26
21 8 0 15 5 15 10 0 19 2 25 10 35 4 6 7 79 7 163 0 113 -4 152 -13 152 -9 0
-12 -33 -13 -120 -2 -127 -7 -162 -22 -138 -5 7 -9 68 -9 136 0 71 -4 122 -10
122 -5 0 -10 -78 -12 -191z m49 -114 c-4 -34 -11 -37 -26 -13 -7 11 -8 17 -2
13 6 -3 11 1 11 9 0 9 5 16 10 16 6 0 9 -11 7 -25z"/>
<path d="M9681 8575 c-1 -89 -6 -133 -11 -120 -8 18 -9 17 -9 -8 -1 -16 2 -26
7 -24 4 3 7 -12 7 -33 0 -21 -3 -36 -7 -33 -5 2 -8 -12 -8 -31 0 -65 49 -33
70 45 10 38 12 40 25 23 12 -16 13 2 8 131 -3 83 -7 152 -9 154 -4 4 -8 -203
-5 -222 1 -5 -3 -6 -9 -2 -5 3 -10 31 -10 62 0 84 -10 58 -16 -43 -9 -151 -19
-127 -24 61 l-6 180 -3 -140z"/>
<path d="M9502 8630 c0 -14 2 -19 5 -12 2 6 2 18 0 25 -3 6 -5 1 -5 -13z"/>
<path d="M9504 8410 c0 -102 2 -143 3 -92 2 50 2 134 0 185 -1 50 -3 9 -3 -93z"/>
<path d="M11391 8464 c0 -11 3 -14 6 -6 3 7 2 16 -1 19 -3 4 -6 -2 -5 -13z"/>
<path d="M9836 8352 c-3 -5 1 -9 9 -9 8 0 12 4 9 9 -3 4 -7 8 -9 8 -2 0 -6 -4
-9 -8z"/>
<path d="M10092 8278 c-7 -7 -12 -42 -12 -87 0 -82 9 -88 21 -14 4 27 11 63
15 81 7 33 -3 41 -24 20z"/>
<path d="M10030 8211 c0 -5 -3 -18 -6 -28 -6 -16 -5 -16 9 2 19 23 21 35 7 35
-5 0 -10 -4 -10 -9z"/>
<path d="M12523 8185 c0 -22 2 -30 4 -17 2 12 2 30 0 40 -3 9 -5 -1 -4 -23z"/>
<path d="M9503 8115 c0 -44 2 -61 4 -37 2 23 2 59 0 80 -2 20 -4 1 -4 -43z"/>
<path d="M10020 8126 c0 -14 5 -26 10 -26 6 0 10 9 10 19 0 11 -4 23 -10 26
-6 4 -10 -5 -10 -19z"/>
<path d="M10282 8125 c0 -16 2 -22 5 -12 2 9 2 23 0 30 -3 6 -5 -1 -5 -18z"/>
<path d="M10282 7685 c0 -16 2 -22 5 -12 2 9 2 23 0 30 -3 6 -5 -1 -5 -18z"/>
<path d="M12262 7675 c0 -16 2 -22 5 -12 2 9 2 23 0 30 -3 6 -5 -1 -5 -18z"/>
<path d="M12682 7590 c0 -19 2 -27 5 -17 2 9 2 25 0 35 -3 9 -5 1 -5 -18z"/>
<path d="M10922 7465 c0 -16 2 -22 5 -12 2 9 2 23 0 30 -3 6 -5 -1 -5 -18z"/>
<path d="M11252 7360 c0 -14 2 -19 5 -12 2 6 2 18 0 25 -3 6 -5 1 -5 -13z"/>
<path d="M10921 7334 c0 -11 3 -14 6 -6 3 7 2 16 -1 19 -3 4 -6 -2 -5 -13z"/>
<path d="M12503 6975 c0 -27 2 -38 4 -22 2 15 2 37 0 50 -2 12 -4 0 -4 -28z"/>
<path d="M10672 6815 c0 -16 2 -22 5 -12 2 9 2 23 0 30 -3 6 -5 -1 -5 -18z"/>
<path d="M12291 6644 c0 -11 3 -14 6 -6 3 7 2 16 -1 19 -3 4 -6 -2 -5 -13z"/>
<path d="M10593 6080 c0 -25 2 -35 4 -22 2 12 2 32 0 45 -2 12 -4 2 -4 -23z"/>
<path d="M10212 5870 c0 -19 2 -27 5 -17 2 9 2 25 0 35 -3 9 -5 1 -5 -18z"/>
<path d="M12472 5820 c0 -14 2 -19 5 -12 2 6 2 18 0 25 -3 6 -5 1 -5 -13z"/>
<path d="M12043 5245 c0 -27 2 -38 4 -22 2 15 2 37 0 50 -2 12 -4 0 -4 -28z"/>
<path d="M10533 4760 c0 -25 2 -35 4 -22 2 12 2 32 0 45 -2 12 -4 2 -4 -23z"/>
</g>
</svg>
