<svg xmlns="http://www.w3.org/2000/svg" xmlns:xlink="http://www.w3.org/1999/xlink" width="500" zoomAndPan="magnify" viewBox="0 0 375 374.999991" height="500" preserveAspectRatio="xMidYMid meet" version="1.0"><defs><g/></defs><g fill="#1c2120" fill-opacity="1"><g transform="translate(130.340887, 189.793789)"><g><path d="M 15.53125 -48.796875 L 15.53125 -51.265625 C 15.53125 -63.503906 14.820312 -71.023438 13.40625 -73.828125 C 11.988281 -76.628906 9.207031 -78.03125 5.0625 -78.03125 L 4.140625 -78.03125 L 4.140625 -79.640625 L 39.59375 -79.640625 L 39.59375 -78.03125 L 38.671875 -78.03125 C 34.484375 -78.03125 31.660156 -76.597656 30.203125 -73.734375 C 28.742188 -70.878906 28.015625 -62.988281 28.015625 -50.0625 L 28.015625 -0.6875 C 28.015625 6.519531 26.351562 11.597656 23.03125 14.546875 C 19.71875 17.503906 14.207031 18.984375 6.5 18.984375 C 1.164062 18.984375 -3.070312 18.003906 -6.21875 16.046875 C -9.363281 14.097656 -10.9375 11.53125 -10.9375 8.34375 C -10.9375 6.769531 -10.445312 5.472656 -9.46875 4.453125 C -8.488281 3.441406 -7.210938 2.9375 -5.640625 2.9375 C -4.140625 2.9375 -2.898438 3.375 -1.921875 4.25 C -0.941406 5.132812 -0.222656 6.5 0.234375 8.34375 L 0.28125 8.515625 C 1.78125 13.847656 4.429688 16.515625 8.234375 16.515625 C 10.992188 16.515625 12.898438 15.613281 13.953125 13.8125 C 15.003906 12.007812 15.53125 8.269531 15.53125 2.59375 Z M 15.53125 -48.796875 "/></g></g></g><g fill="#1c2120" fill-opacity="1"><g transform="translate(155.683206, 260.387454)"><g><path d="M 4.953125 0 L 4.953125 -1.671875 L 5.875 -1.671875 C 10.007812 -1.671875 12.796875 -3.0625 14.234375 -5.84375 C 15.679688 -8.625 16.40625 -16.148438 16.40625 -28.421875 L 16.40625 -51.265625 C 16.40625 -63.503906 15.679688 -71.023438 14.234375 -73.828125 C 12.796875 -76.628906 10.007812 -78.03125 5.875 -78.03125 L 4.953125 -78.03125 L 4.953125 -79.640625 L 38.546875 -79.640625 C 46.109375 -79.640625 52.226562 -79.117188 56.90625 -78.078125 C 61.582031 -77.046875 65.59375 -75.378906 68.9375 -73.078125 C 73.882812 -69.660156 77.773438 -65 80.609375 -59.09375 C 83.453125 -53.1875 84.875 -46.757812 84.875 -39.8125 C 84.875 -32.945312 83.492188 -26.578125 80.734375 -20.703125 C 77.972656 -14.835938 74.15625 -10.179688 69.28125 -6.734375 C 65.90625 -4.316406 61.929688 -2.585938 57.359375 -1.546875 C 52.796875 -0.515625 46.523438 0 38.546875 0 Z M 28.890625 -77.15625 L 28.890625 -22.265625 C 28.890625 -13.671875 29.675781 -8.222656 31.25 -5.921875 C 32.820312 -3.617188 35.867188 -2.46875 40.390625 -2.46875 C 49.179688 -2.46875 56.335938 -5.910156 61.859375 -12.796875 C 67.378906 -19.679688 70.140625 -28.6875 70.140625 -39.8125 C 70.140625 -51.550781 67.203125 -60.707031 61.328125 -67.28125 C 55.460938 -73.863281 47.316406 -77.15625 36.890625 -77.15625 Z M 28.890625 -77.15625 "/></g></g></g><g fill="#1c2120" fill-opacity="1"><g transform="translate(189.733909, 168.153392)"><g/></g></g><g fill="#1c2120" fill-opacity="1"><g transform="translate(193.666736, 167.318518)"><g><path d="M 1.421875 -0.0625 L 0.9375 -10.3125 L 1.8125 -10.359375 L 2.296875 -0.109375 Z M 1.59375 -0.078125 L 1.5625 -0.90625 L 8.109375 -1.21875 L 8.140625 -0.390625 Z M 1.359375 -4.921875 L 1.328125 -5.75 L 7.15625 -6.015625 L 7.1875 -5.1875 Z M 1.15625 -9.5 L 1.109375 -10.328125 L 7.65625 -10.640625 L 7.703125 -9.8125 Z M 1.15625 -9.5 "/></g></g></g><g fill="#1c2120" fill-opacity="1"><g transform="translate(202.084659, 166.849849)"><g><path d="M 4.1875 0.546875 L 1.875 -10.109375 L 2.828125 -9.984375 L 4.875 -0.234375 L 4.984375 -0.21875 L 9.515625 -9.125 L 10.453125 -9 L 5.453125 0.703125 Z M 4.1875 0.546875 "/></g></g></g><g fill="#1c2120" fill-opacity="1"><g transform="translate(211.436019, 168.082653)"><g><path d="M 1.359375 0.421875 L 4.453125 -9.375 L 5.28125 -9.109375 L 2.1875 0.6875 Z M 1.515625 0.484375 L 1.765625 -0.3125 L 8.03125 1.65625 L 7.78125 2.453125 Z M 2.96875 -4.140625 L 3.21875 -4.921875 L 8.796875 -3.171875 L 8.546875 -2.390625 Z M 4.359375 -8.515625 L 4.609375 -9.3125 L 10.875 -7.34375 L 10.625 -6.546875 Z M 4.359375 -8.515625 "/></g></g></g><g fill="#1c2120" fill-opacity="1"><g transform="translate(219.528569, 170.653237)"><g><path d="M 1.265625 0.640625 L 5.859375 -8.546875 L 6.640625 -8.15625 L 2.046875 1.03125 Z M 1.671875 0.84375 L 2.046875 0.109375 L 7 2.578125 L 6.625 3.3125 Z M 1.671875 0.84375 "/></g></g></g><g fill="#1c2120" fill-opacity="1"><g transform="translate(226.29632, 173.851538)"><g><path d="M 4.28125 3.4375 C 3.6875 3 3.242188 2.507812 2.953125 1.96875 C 2.671875 1.425781 2.519531 0.851562 2.5 0.25 C 2.488281 -0.34375 2.601562 -0.953125 2.84375 -1.578125 C 3.09375 -2.203125 3.445312 -2.816406 3.90625 -3.421875 C 4.601562 -4.367188 5.335938 -5.046875 6.109375 -5.453125 C 6.890625 -5.867188 7.664062 -6.039062 8.4375 -5.96875 C 9.21875 -5.90625 9.945312 -5.617188 10.625 -5.109375 C 11.164062 -4.710938 11.578125 -4.253906 11.859375 -3.734375 C 12.140625 -3.210938 12.289062 -2.644531 12.3125 -2.03125 C 12.332031 -1.425781 12.226562 -0.796875 12 -0.140625 C 11.78125 0.503906 11.414062 1.164062 10.90625 1.84375 C 10.457031 2.445312 9.96875 2.953125 9.4375 3.359375 C 8.90625 3.773438 8.359375 4.0625 7.796875 4.21875 C 7.234375 4.382812 6.65625 4.40625 6.0625 4.28125 C 5.46875 4.164062 4.875 3.882812 4.28125 3.4375 Z M 4.75 2.71875 C 5.03125 2.925781 5.367188 3.101562 5.765625 3.25 C 6.171875 3.394531 6.609375 3.453125 7.078125 3.421875 C 7.546875 3.390625 8.046875 3.207031 8.578125 2.875 C 9.109375 2.550781 9.644531 2.03125 10.1875 1.3125 C 10.851562 0.425781 11.25 -0.378906 11.375 -1.109375 C 11.5 -1.835938 11.441406 -2.476562 11.203125 -3.03125 C 10.972656 -3.59375 10.625 -4.046875 10.15625 -4.390625 C 9.882812 -4.585938 9.554688 -4.757812 9.171875 -4.90625 C 8.785156 -5.050781 8.347656 -5.109375 7.859375 -5.078125 C 7.367188 -5.046875 6.847656 -4.863281 6.296875 -4.53125 C 5.753906 -4.207031 5.195312 -3.660156 4.625 -2.890625 C 4.09375 -2.179688 3.738281 -1.535156 3.5625 -0.953125 C 3.382812 -0.367188 3.335938 0.15625 3.421875 0.625 C 3.503906 1.09375 3.664062 1.5 3.90625 1.84375 C 4.144531 2.1875 4.425781 2.476562 4.75 2.71875 Z M 4.75 2.71875 "/></g></g></g><g fill="#1c2120" fill-opacity="1"><g transform="translate(234.709401, 180.193177)"><g><path d="M 3.5625 -1.03125 L 4.203125 -1.609375 L 5.921875 0.296875 C 6.078125 0.460938 6.257812 0.648438 6.46875 0.859375 C 6.6875 1.078125 6.929688 1.273438 7.203125 1.453125 C 7.484375 1.628906 7.78125 1.753906 8.09375 1.828125 C 8.414062 1.910156 8.757812 1.90625 9.125 1.8125 C 9.488281 1.71875 9.867188 1.488281 10.265625 1.125 C 10.648438 0.78125 10.898438 0.4375 11.015625 0.09375 C 11.140625 -0.25 11.179688 -0.578125 11.140625 -0.890625 C 11.097656 -1.210938 11.003906 -1.507812 10.859375 -1.78125 C 10.722656 -2.0625 10.570312 -2.304688 10.40625 -2.515625 C 10.238281 -2.734375 10.101562 -2.898438 10 -3.015625 L 8.078125 -5.140625 L 8.703125 -5.6875 L 10.71875 -3.46875 C 11.09375 -3.050781 11.394531 -2.613281 11.625 -2.15625 C 11.863281 -1.695312 11.992188 -1.238281 12.015625 -0.78125 C 12.046875 -0.320312 11.96875 0.125 11.78125 0.5625 C 11.601562 1.007812 11.296875 1.429688 10.859375 1.828125 C 10.304688 2.328125 9.726562 2.625 9.125 2.71875 C 8.519531 2.820312 7.882812 2.710938 7.21875 2.390625 C 6.5625 2.078125 5.890625 1.539062 5.203125 0.78125 Z M 0.953125 1.046875 L 8.5625 -5.84375 L 9.15625 -5.1875 L 1.546875 1.703125 Z M 0.953125 1.046875 "/></g></g></g><g fill="#1c2120" fill-opacity="1"><g transform="translate(240.878495, 186.618562)"><g><path d="M 0.703125 1.234375 L 9.59375 -3.890625 L 10.3125 -2.640625 L 4 5.3125 L 4.03125 5.375 L 14.109375 3.921875 L 14.796875 5.125 L 5.90625 10.25 L 5.484375 9.5 L 13.640625 4.890625 L 13.59375 4.796875 L 3.59375 6.234375 L 3.046875 5.28125 L 9.296875 -2.671875 L 9.265625 -2.734375 L 1.140625 1.984375 Z M 0.703125 1.234375 "/></g></g></g><g fill="#1c2120" fill-opacity="1"><g transform="translate(247.103758, 197.795238)"><g><path d="M 0.4375 1.359375 L 10.203125 -1.8125 L 10.46875 -0.984375 L 0.703125 2.1875 Z M 0.5 1.515625 L 1.28125 1.265625 L 3.3125 7.5 L 2.53125 7.75 Z M 5.109375 0.015625 L 5.890625 -0.234375 L 7.6875 5.328125 L 6.90625 5.578125 Z M 9.46875 -1.40625 L 10.265625 -1.65625 L 12.296875 4.578125 L 11.5 4.828125 Z M 9.46875 -1.40625 "/></g></g></g><g fill="#1c2120" fill-opacity="1"><g transform="translate(249.825802, 205.741333)"><g><path d="M 0.1875 1.40625 L 10.375 0.09375 L 10.53125 1.328125 L 2.203125 8.34375 L 2.21875 8.40625 L 11.28125 7.171875 L 11.390625 8.03125 L 1.203125 9.34375 L 1.0625 8.21875 L 9.453125 1.109375 L 9.4375 1.015625 L 0.296875 2.265625 Z M 0.1875 1.40625 "/></g></g></g><g fill="#1c2120" fill-opacity="1"><g transform="translate(251.079021, 216.17843)"><g><path d="M -0.1875 3.625 L 10.0625 4.15625 L 10.015625 5.046875 L -0.234375 4.515625 Z M 9.40625 0.9375 L 10.234375 0.96875 L 9.84375 8.21875 L 9.015625 8.1875 Z M 9.40625 0.9375 "/></g></g></g><g fill="#1c2120" fill-opacity="1"><g transform="translate(250.544281, 224.194263)"><g/></g></g></svg>