<svg xmlns="http://www.w3.org/2000/svg" xmlns:xlink="http://www.w3.org/1999/xlink" width="1024" zoomAndPan="magnify" viewBox="0 0 768 767.999994" height="1024" preserveAspectRatio="xMidYMid meet" version="1.0"><defs><clipPath id="d8dffe9769"><path d="M 175.195312 215.589844 L 274.945312 215.589844 L 274.945312 292.839844 L 175.195312 292.839844 Z M 175.195312 215.589844 " clip-rule="nonzero"/></clipPath><clipPath id="fc93a0ed5d"><path d="M 138.441406 238.246094 L 572.691406 238.246094 L 572.691406 571.996094 L 138.441406 571.996094 Z M 138.441406 238.246094 " clip-rule="nonzero"/></clipPath><clipPath id="09f0ac07f7"><path d="M 204.339844 238.246094 L 638.589844 238.246094 L 638.589844 571.996094 L 204.339844 571.996094 Z M 204.339844 238.246094 " clip-rule="nonzero"/></clipPath><clipPath id="f0df2328a4"><path d="M 287.859375 196.070312 L 479.859375 196.070312 L 479.859375 343.820312 L 287.859375 343.820312 Z M 287.859375 196.070312 " clip-rule="nonzero"/></clipPath><clipPath id="78603cbe01"><path d="M 275.316406 296.605469 L 492.484375 296.605469 L 492.484375 513.769531 L 275.316406 513.769531 Z M 275.316406 296.605469 " clip-rule="nonzero"/></clipPath><clipPath id="9dd8c6e2dd"><path d="M 383.898438 296.605469 C 323.929688 296.605469 275.316406 345.21875 275.316406 405.1875 C 275.316406 465.15625 323.929688 513.769531 383.898438 513.769531 C 443.871094 513.769531 492.484375 465.15625 492.484375 405.1875 C 492.484375 345.21875 443.871094 296.605469 383.898438 296.605469 Z M 383.898438 296.605469 " clip-rule="nonzero"/></clipPath><clipPath id="36d41c8c57"><path d="M 307.957031 328.3125 L 461.507812 328.3125 L 461.507812 481.863281 L 307.957031 481.863281 Z M 307.957031 328.3125 " clip-rule="nonzero"/></clipPath><clipPath id="d8ce6ecc3d"><path d="M 384.734375 328.3125 C 342.332031 328.3125 307.957031 362.6875 307.957031 405.089844 C 307.957031 447.488281 342.332031 481.863281 384.734375 481.863281 C 427.136719 481.863281 461.507812 447.488281 461.507812 405.089844 C 461.507812 362.6875 427.136719 328.3125 384.734375 328.3125 Z M 384.734375 328.3125 " clip-rule="nonzero"/></clipPath><clipPath id="248ddcef40"><path d="M 348.097656 233 L 421.597656 233 L 421.597656 259 L 348.097656 259 Z M 348.097656 233 " clip-rule="nonzero"/></clipPath><clipPath id="3c04fe7383"><path d="M 420 382 L 449 382 L 449 411 L 420 411 Z M 420 382 " clip-rule="nonzero"/></clipPath><clipPath id="1cde0694f8"><path d="M 424.503906 379.65625 L 451.5 386.246094 L 444.910156 413.238281 L 417.917969 406.652344 Z M 424.503906 379.65625 " clip-rule="nonzero"/></clipPath><clipPath id="f20ed97f84"><path d="M 438 382.953125 C 430.546875 381.132812 423.03125 385.699219 421.210938 393.15625 C 419.390625 400.609375 423.957031 408.125 431.414062 409.945312 C 438.867188 411.765625 446.386719 407.199219 448.203125 399.742188 C 450.023438 392.289062 445.457031 384.773438 438 382.953125 Z M 438 382.953125 " clip-rule="nonzero"/></clipPath><clipPath id="ac4ebc7c18"><path d="M 364 343 L 424 343 L 424 375 L 364 375 Z M 364 343 " clip-rule="nonzero"/></clipPath><clipPath id="2e06f654d1"><path d="M 401.394531 327.613281 L 423.625 364.199219 L 387.039062 386.429688 L 364.8125 349.84375 Z M 401.394531 327.613281 " clip-rule="nonzero"/></clipPath><clipPath id="6f7477ca83"><path d="M 401.394531 327.613281 L 423.625 364.199219 L 387.039062 386.429688 L 364.8125 349.84375 Z M 401.394531 327.613281 " clip-rule="nonzero"/></clipPath><clipPath id="37a5d6facf"><path d="M 360 349 L 375 349 L 375 368 L 360 368 Z M 360 349 " clip-rule="nonzero"/></clipPath><clipPath id="7823d89e12"><path d="M 364.9375 349.769531 L 374.859375 366.097656 L 366.648438 371.085938 L 356.726562 354.757812 Z M 364.9375 349.769531 " clip-rule="nonzero"/></clipPath><clipPath id="8252ae18b8"><path d="M 364.9375 349.769531 L 374.859375 366.097656 L 366.648438 371.085938 L 356.726562 354.757812 Z M 364.9375 349.769531 " clip-rule="nonzero"/></clipPath><clipPath id="eebf6fcbce"><path d="M 407 364 L 425 364 L 425 379 L 407 379 Z M 407 364 " clip-rule="nonzero"/></clipPath><clipPath id="eb2c2e9ffd"><path d="M 407.351562 373.914062 L 423.59375 364.046875 L 428.527344 372.167969 L 412.289062 382.035156 Z M 407.351562 373.914062 " clip-rule="nonzero"/></clipPath><clipPath id="eded41abfe"><path d="M 407.351562 373.914062 L 423.59375 364.046875 L 428.527344 372.167969 L 412.289062 382.035156 Z M 407.351562 373.914062 " clip-rule="nonzero"/></clipPath><clipPath id="baaa2d03e1"><path d="M 406 362 L 425 362 L 425 376 L 406 376 Z M 406 362 " clip-rule="nonzero"/></clipPath><clipPath id="3f4d9efc11"><path d="M 422.3125 362.039062 L 424.210938 365.164062 L 407.96875 375.03125 L 406.074219 371.90625 Z M 422.3125 362.039062 " clip-rule="nonzero"/></clipPath><clipPath id="08c494beec"><path d="M 363 348 L 377 348 L 377 368 L 363 368 Z M 363 348 " clip-rule="nonzero"/></clipPath><clipPath id="4bd6804c6c"><path d="M 376.648438 365.039062 L 373.265625 367.113281 L 363.265625 350.832031 L 366.648438 348.757812 Z M 376.648438 365.039062 " clip-rule="nonzero"/></clipPath></defs><rect x="-76.8" width="921.6" fill="#ffffff" y="-76.799999" height="921.599993" fill-opacity="1"/><rect x="-76.8" width="921.6" fill="#bf83f1" y="-76.799999" height="921.599993" fill-opacity="1"/><g clip-path="url(#d8dffe9769)"><path fill="#ec52a6" d="M 256.039062 215.589844 L 194.460938 215.589844 C 183.6875 215.589844 175.21875 224.054688 175.21875 234.832031 L 175.21875 273.316406 C 175.21875 284.089844 183.6875 292.558594 194.460938 292.558594 L 256.039062 292.558594 C 266.8125 292.558594 275.28125 284.089844 275.28125 273.316406 L 275.28125 234.832031 C 275.28125 224.054688 266.8125 215.589844 256.039062 215.589844 Z M 256.039062 215.589844 " fill-opacity="1" fill-rule="nonzero"/></g><g clip-path="url(#fc93a0ed5d)"><path fill="#483d32" d="M 488.9375 238.246094 L 221.996094 238.246094 C 175.28125 238.246094 138.574219 274.953125 138.574219 321.667969 L 138.574219 488.507812 C 138.574219 535.222656 175.28125 571.925781 221.996094 571.925781 L 488.9375 571.925781 C 535.652344 571.925781 572.359375 535.222656 572.359375 488.507812 L 572.359375 321.667969 C 572.359375 274.953125 535.652344 238.246094 488.9375 238.246094 Z M 488.9375 238.246094 " fill-opacity="1" fill-rule="nonzero"/></g><g clip-path="url(#09f0ac07f7)"><path fill="#483d32" d="M 554.835938 238.246094 L 287.894531 238.246094 C 241.179688 238.246094 204.472656 274.953125 204.472656 321.667969 L 204.472656 488.507812 C 204.472656 535.222656 241.179688 571.925781 287.894531 571.925781 L 554.835938 571.925781 C 601.550781 571.925781 638.257812 535.222656 638.257812 488.507812 L 638.257812 321.667969 C 638.257812 274.953125 601.550781 238.246094 554.835938 238.246094 Z M 554.835938 238.246094 " fill-opacity="1" fill-rule="nonzero"/></g><g clip-path="url(#f0df2328a4)"><path fill="#483d32" d="M 442.960938 196.070312 L 324.835938 196.070312 C 304.164062 196.070312 287.921875 212.3125 287.921875 232.984375 L 287.921875 306.8125 C 287.921875 327.484375 304.164062 343.726562 324.835938 343.726562 L 442.960938 343.726562 C 463.632812 343.726562 479.875 327.484375 479.875 306.8125 L 479.875 232.984375 C 479.875 212.3125 463.632812 196.070312 442.960938 196.070312 Z M 442.960938 196.070312 " fill-opacity="1" fill-rule="nonzero"/></g><g clip-path="url(#78603cbe01)"><g clip-path="url(#9dd8c6e2dd)"><path fill="#ffffff" d="M 275.316406 296.605469 L 492.484375 296.605469 L 492.484375 513.769531 L 275.316406 513.769531 Z M 275.316406 296.605469 " fill-opacity="1" fill-rule="nonzero"/></g></g><g clip-path="url(#36d41c8c57)"><g clip-path="url(#d8ce6ecc3d)"><path fill="#a548ff" d="M 307.957031 328.3125 L 461.507812 328.3125 L 461.507812 481.863281 L 307.957031 481.863281 Z M 307.957031 328.3125 " fill-opacity="1" fill-rule="nonzero"/></g></g><g clip-path="url(#248ddcef40)"><path fill="#ffffff" d="M 421.363281 245.902344 C 421.363281 253.015625 415.625 258.75 408.515625 258.75 L 360.945312 258.75 C 353.835938 258.800781 348.097656 253.015625 348.097656 245.902344 C 348.097656 238.792969 353.835938 233.054688 360.945312 233.054688 L 408.464844 233.054688 C 415.625 233.054688 421.363281 238.792969 421.363281 245.902344 Z M 421.363281 245.902344 " fill-opacity="1" fill-rule="nonzero"/></g><g clip-path="url(#3c04fe7383)"><g clip-path="url(#1cde0694f8)"><g clip-path="url(#f20ed97f84)"><path fill="#ffffff" d="M 424.503906 379.65625 L 451.5 386.246094 L 444.910156 413.238281 L 417.917969 406.652344 Z M 424.503906 379.65625 " fill-opacity="1" fill-rule="nonzero"/></g></g></g><g clip-path="url(#ac4ebc7c18)"><g clip-path="url(#2e06f654d1)"><g clip-path="url(#6f7477ca83)"><path fill="#ffffff" d="M 407.328125 374.050781 L 423.601562 364.164062 C 411.335938 343.976562 385.03125 337.558594 364.847656 349.824219 L 374.738281 366.097656 C 385.933594 359.292969 400.523438 362.855469 407.328125 374.050781 Z M 407.328125 374.050781 " fill-opacity="1" fill-rule="nonzero"/></g></g></g><g clip-path="url(#37a5d6facf)"><g clip-path="url(#7823d89e12)"><g clip-path="url(#8252ae18b8)"><path fill="#ffffff" d="M 374.867188 366.109375 C 370.351562 368.855469 364.46875 367.417969 361.726562 362.902344 C 358.980469 358.386719 360.425781 352.519531 364.941406 349.777344 Z M 374.867188 366.109375 " fill-opacity="1" fill-rule="nonzero"/></g></g></g><g clip-path="url(#eebf6fcbce)"><g clip-path="url(#eb2c2e9ffd)"><g clip-path="url(#eded41abfe)"><path fill="#ffffff" d="M 423.542969 364.078125 C 426.257812 368.550781 424.835938 374.378906 420.363281 377.097656 C 415.890625 379.8125 410.078125 378.382812 407.359375 373.910156 Z M 423.542969 364.078125 " fill-opacity="1" fill-rule="nonzero"/></g></g></g><g clip-path="url(#baaa2d03e1)"><g clip-path="url(#3f4d9efc11)"><path fill="#ffffff" d="M 422.3125 362.039062 L 424.210938 365.164062 L 407.96875 375.03125 L 406.074219 371.90625 Z M 422.3125 362.039062 " fill-opacity="1" fill-rule="nonzero"/></g></g><g clip-path="url(#08c494beec)"><g clip-path="url(#4bd6804c6c)"><path fill="#ffffff" d="M 376.648438 365.039062 L 373.265625 367.113281 L 363.265625 350.832031 L 366.648438 348.757812 Z M 376.648438 365.039062 " fill-opacity="1" fill-rule="nonzero"/></g></g></svg>